<?xml version="1.0" encoding="UTF-8"?>
<svg width="282px" height="136px" viewBox="0 0 282 136" version="1.1" xmlns="http://www.w3.org/2000/svg" xmlns:xlink="http://www.w3.org/1999/xlink">
    <title>Tarjetas / ahorro / verde Copy</title>
    <defs>
        <linearGradient x1="85.872886%" y1="38.3769133%" x2="18.933878%" y2="65.033022%" id="linearGradient-1">
            <stop stop-color="#1F8766" offset="0%"></stop>
            <stop stop-color="#014F36" offset="100%"></stop>
        </linearGradient>
        <linearGradient x1="100%" y1="48.5334486%" x2="0%" y2="51.4665514%" id="linearGradient-2">
            <stop stop-color="#CBC5C7" offset="0%"></stop>
            <stop stop-color="#FFFFFF" offset="52.5514141%"></stop>
            <stop stop-color="#CBC5C7" offset="100%"></stop>
        </linearGradient>
        <linearGradient x1="54.4192841%" y1="50%" x2="44.2183321%" y2="56.2959504%" id="linearGradient-3">
            <stop stop-color="#FFFFFF" stop-opacity="0.2" offset="0%"></stop>
            <stop stop-color="#FFFFFF" stop-opacity="0" offset="100%"></stop>
        </linearGradient>
        <linearGradient x1="13.1721158%" y1="32.172325%" x2="69.6816544%" y2="80.8315582%" id="linearGradient-4">
            <stop stop-color="#FFFFFF" stop-opacity="0.2" offset="0%"></stop>
            <stop stop-color="#FFFFFF" stop-opacity="0" offset="100%"></stop>
        </linearGradient>
        <linearGradient x1="50%" y1="0%" x2="50%" y2="100%" id="linearGradient-5">
            <stop stop-color="#FFFFFF" stop-opacity="0.2" offset="0%"></stop>
            <stop stop-color="#FFFFFF" stop-opacity="0" offset="100%"></stop>
        </linearGradient>
        <linearGradient x1="50%" y1="0%" x2="50%" y2="100%" id="linearGradient-6">
            <stop stop-color="#FFFFFF" stop-opacity="0" offset="0%"></stop>
            <stop stop-color="#FFFFFF" stop-opacity="0.2" offset="100%"></stop>
        </linearGradient>
        <linearGradient x1="50%" y1="0%" x2="50%" y2="100%" id="linearGradient-7">
            <stop stop-color="#FFFFFF" stop-opacity="0" offset="0%"></stop>
            <stop stop-color="#FFFFFF" stop-opacity="0.2" offset="100%"></stop>
        </linearGradient>
        <linearGradient x1="0%" y1="50%" x2="100%" y2="50%" id="linearGradient-8">
            <stop stop-color="#FFFFFF" stop-opacity="0.2" offset="0%"></stop>
            <stop stop-color="#FFFFFF" stop-opacity="0" offset="100%"></stop>
        </linearGradient>
        <linearGradient x1="7.38868979%" y1="42%" x2="100%" y2="50%" id="linearGradient-9">
            <stop stop-color="#FFFFFF" stop-opacity="0" offset="0%"></stop>
            <stop stop-color="#FFFFFF" stop-opacity="0.2" offset="100%"></stop>
        </linearGradient>
        <linearGradient x1="100%" y1="40.4950584%" x2="0%" y2="50%" id="linearGradient-10">
            <stop stop-color="#FFFFFF" stop-opacity="0.2" offset="0%"></stop>
            <stop stop-color="#FFFFFF" stop-opacity="0" offset="100%"></stop>
        </linearGradient>
    </defs>
    <g id="cambio-clave-tarjeta" stroke="none" stroke-width="1" fill="none" fill-rule="evenodd">
        <g id="Artboard" transform="translate(-3668.000000, -362.000000)">
            <g id="Tarjetas-/-ahorro-/-verde-Copy" transform="translate(3668.623563, 362.168692)">
                <g id="Cards-cuentas-/-card-cuentas-+-ver-detalle" fill="url(#linearGradient-1)" fill-rule="nonzero">
                    <rect id="bg" x="0" y="0" width="280" height="135" rx="8"></rect>
                </g>
                <path d="M17.9093369,96.5374696 L18.4959405,94.8811773 L21.6474966,94.8811773 L22.2341001,96.5374696 L24.2124493,96.5374696 L21.1759134,88.3825304 L19.0710419,88.3825304 L16,96.5374696 L17.9093369,96.5374696 Z M21.0723951,93.224885 L19.094046,93.224885 L20.0947226,90.4068877 L21.0723951,93.224885 Z M27.0304465,96.5374696 L27.0304465,93.2938972 L30.285521,93.2938972 L30.285521,96.5374696 L32.1143437,96.5374696 L32.1143437,88.3825304 L30.285521,88.3825304 L30.285521,91.5800947 L27.0304465,91.5800947 L27.0304465,88.3825304 L25.2131258,88.3825304 L25.2131258,96.5374696 L27.0304465,96.5374696 Z M37.64682,96.71 C39.935724,96.71 41.879567,95.0422057 41.879567,92.465751 C41.879567,89.8777943 39.935724,88.21 37.64682,88.21 C35.3464141,88.21 33.402571,89.8777943 33.402571,92.465751 C33.402571,95.0422057 35.3464141,96.71 37.64682,96.71 Z M37.64682,94.9156834 C36.5081191,94.9156834 35.2889039,94.1565494 35.2889039,92.454249 C35.2889039,90.7519486 36.5081191,89.9813126 37.64682,89.9813126 C38.7740189,89.9813126 39.9932341,90.7519486 39.9932341,92.454249 C39.9932341,94.1565494 38.7740189,94.9156834 37.64682,94.9156834 Z M44.9966171,96.5374696 L44.9966171,93.5009337 L45.6407307,93.5009337 L47.1014885,96.5374696 L49.1028417,96.5374696 L47.4465494,93.236387 C48.447226,92.8798241 49.0568336,92.0401759 49.0568336,90.9359811 C49.0568336,89.4867253 48.0216509,88.3825304 46.4113667,88.3825304 L43.1792963,88.3825304 L43.1792963,96.5374696 L44.9966171,96.5374696 Z M46.0663058,91.9366576 L44.9966171,91.9366576 L44.9966171,89.9583085 L46.0663058,89.9583085 C46.8139378,89.9583085 47.2165088,90.3378755 47.2165088,90.9474831 C47.2165088,91.5225846 46.8139378,91.9366576 46.0663058,91.9366576 Z M52.2198917,96.5374696 L52.2198917,93.5009337 L52.8640054,93.5009337 L54.3247632,96.5374696 L56.3261164,96.5374696 L54.6698241,93.236387 C55.6705007,92.8798241 56.2801083,92.0401759 56.2801083,90.9359811 C56.2801083,89.4867253 55.2449256,88.3825304 53.6346414,88.3825304 L50.402571,88.3825304 L50.402571,96.5374696 L52.2198917,96.5374696 Z M53.2895805,91.9366576 L52.2198917,91.9366576 L52.2198917,89.9583085 L53.2895805,89.9583085 C54.0372124,89.9583085 54.4397835,90.3378755 54.4397835,90.9474831 C54.4397835,91.5225846 54.0372124,91.9366576 53.2895805,91.9366576 Z M61.3985115,96.71 C63.6874154,96.71 65.6312585,95.0422057 65.6312585,92.465751 C65.6312585,89.8777943 63.6874154,88.21 61.3985115,88.21 C59.0981055,88.21 57.1542625,89.8777943 57.1542625,92.465751 C57.1542625,95.0422057 59.0981055,96.71 61.3985115,96.71 Z M61.3985115,94.9156834 C60.2598106,94.9156834 59.0405954,94.1565494 59.0405954,92.454249 C59.0405954,90.7519486 60.2598106,89.9813126 61.3985115,89.9813126 C62.5257104,89.9813126 63.7449256,90.7519486 63.7449256,92.454249 C63.7449256,94.1565494 62.5257104,94.9156834 61.3985115,94.9156834 Z" id="AHORRO" fill="url(#linearGradient-2)" fill-rule="nonzero"></path>
                <rect id="Rectangle" fill-opacity="0.15" fill="#FFFFFF" x="0" y="101.84" width="161.728421" height="1.38666667"></rect>
                <rect id="Rectangle" fill-opacity="0.15" fill="#FFFFFF" x="0" y="119.84" width="280" height="1.38666667"></rect>
                <g id="Group-38" opacity="0.55" transform="translate(161.728421, 3.130992)">
                    <g id="Group-37">
                        <path d="M0,103.2 L0,60.2 L10.0333333,55.9 L11.4666667,56.6166667 L52.3166667,40.85 L52.3166667,22.9333333 L54.4666667,21.5 L54.4666667,16.4833333 C59.890085,14.4268796 65.1456406,12.0379907 70.2333333,9.31666667 C75.3210261,6.59534264 80.3376927,3.48978709 85.2833333,0 L118.25,33.6833333 L118.25,103.916667 L102.483333,105.35 C100.809137,105.827778 98.898026,106.066667 96.75,106.066667 C94.601974,106.066667 92.451974,105.827778 90.3,105.35 L83.85,107.5 L53.0333333,106.066667 L53.0333333,105.35 L0,103.2 Z" id="Path-18" stroke-opacity="0.2" stroke="#FFFFFF"></path>
                        <line x1="52.3166667" y1="40.85" x2="52.3166667" y2="104.633333" id="Path-20" stroke-opacity="0.2" stroke="#FFFFFF"></line>
                        <polyline id="Path-21" stroke-opacity="0.2" stroke="#FFFFFF" points="85.2833333 0 85.2833333 6.45 85.2833333 93.8833333"></polyline>
                        <path d="M91.0166667,25.8 L91.0166667,93.8833333 L118.25,93.8833333 L118.25,43.7166667 L118.25,40.85 L102.483333,25.8 C100.572222,24.8444444 98.6611111,24.3666667 96.75,24.3666667 C94.8388889,24.3666667 92.9277778,24.8444444 91.0166667,25.8 Z" id="Path-22" stroke-opacity="0.2" stroke="#FFFFFF"></path>
                        <line x1="10.0333333" y1="55.9" x2="10.0333333" y2="103.2" id="Path-23" stroke-opacity="0.2" stroke="#FFFFFF"></line>
                        <line x1="10.0333333" y1="60.9166667" x2="52.3166667" y2="45.8666667" id="Path-24" stroke-opacity="0.2" stroke="#FFFFFF"></line>
                        <polyline id="Path-25" stroke-opacity="0.2" stroke="#FFFFFF" points="10.0333333 96.0333333 52.3166667 93.8833333 85.2833333 93.8833333 91.0166667 93.8833333"></polyline>
                        <path d="M102.483333,37.9833333 C102.483333,72.8611111 102.483333,90.3 102.483333,90.3 L118.25,91.0166667 L118.25,50.1666667 L102.483333,37.9833333 Z" id="Path-27" fill="url(#linearGradient-3)"></path>
                        <polygon id="Path-28" fill="url(#linearGradient-4)" points="12.1833333 62.35 12.1833333 93.8833333 51.0625 92.2983974 51.0625 48.5817308"></polygon>
                        <polygon id="Path-30" fill="url(#linearGradient-5)" points="8.6580998 58.3672812 8.6580998 102.916667 1.47271505 102.916667 1.47271505 61.2414351"></polygon>
                        <polygon id="Path-29" fill="url(#linearGradient-6)" points="54.4666667 26.5166667 60.2 23.65 60.2 90.3 54.4666667 90.3"></polygon>
                        <polygon id="Path-29-Copy" fill="url(#linearGradient-7)" points="78.1166667 15.2658229 83.85 11.8935004 83.85 90.3 78.1166667 90.3"></polygon>
                        <polygon id="Path-31" fill-opacity="0.2" fill="#D8D8D8" points="75.9666667 17.9166667 75.9666667 20.0666667 60.9166667 27.2333333 60.9166667 25.0833333"></polygon>
                        <polygon id="Path-31-Copy" fill-opacity="0.2" fill="#D8D8D8" points="75.9666667 26.5166667 75.9666667 28.6666667 60.9166667 35.1166667 60.9166667 32.9666667"></polygon>
                        <polygon id="Path-31-Copy-2" fill-opacity="0.2" fill="#D8D8D8" points="75.9666667 35.4279857 75.9666667 37.5779857 60.9166667 43.7166667 60.9166667 41.5666667"></polygon>
                        <polygon id="Path-31-Copy-2" fill-opacity="0.2" fill="#D8D8D8" points="75.9666667 44.0279857 75.9666667 46.1779857 60.9166667 51.6 60.9166667 49.45"></polygon>
                        <polygon id="Path-31-Copy-2" fill-opacity="0.2" fill="#D8D8D8" points="75.9666667 52.6279857 75.9666667 54.7779857 60.9166667 58.7666667 60.9166667 56.6166667"></polygon>
                        <polygon id="Path-31-Copy-3" fill-opacity="0.2" fill="#D8D8D8" points="75.9666667 60.4273661 75.9666667 62.5773661 60.9166667 65.9333333 60.9166667 63.7833333"></polygon>
                        <polygon id="Path-31-Copy-4" fill-opacity="0.2" fill="#D8D8D8" points="75.9666667 68.0925984 75.9666667 70.2425984 60.9166667 73.1 60.9166667 70.95"></polygon>
                        <polygon id="Path-31-Copy-5" fill-opacity="0.2" fill="#D8D8D8" points="75.9666667 76.1112684 75.9666667 78.2612684 60.9166667 80.2666667 60.9166667 78.1166667"></polygon>
                        <polyline id="Path-32" stroke-opacity="0.2" stroke="#FFFFFF" points="54.4666667 21.5 63.0666667 17.9166667 63.0666667 24.3666667 75.25 17.9166667 75.25 12.1833333 85.2833333 6.45 118.25 37.9833333"></polyline>
                        <polygon id="Path-33" fill="url(#linearGradient-8)" points="14.8846154 97.1634615 51.2416667 96.0333333 51.2416667 103.730742 15.05 102.546525"></polygon>
                        <polygon id="Path-34" fill="url(#linearGradient-9)" points="83.1333333 104.633333 58.05 103.916667 58.05 94.6 83.1333333 94.6"></polygon>
                        <polygon id="Path-35" fill="url(#linearGradient-10)" points="102.483333 94.6 102.483333 105.35 117.533333 103.916667 117.533333 93.8833333 102.483333 93.8833333"></polygon>
                    </g>
                </g>
            </g>
        </g>
    </g>
</svg>