<?xml version="1.0" encoding="UTF-8"?>
<svg width="281px" height="140px" viewBox="0 0 281 140" version="1.1" xmlns="http://www.w3.org/2000/svg" xmlns:xlink="http://www.w3.org/1999/xlink">
    <title>Tarjetas / debito / cuentarut Copy</title>
    <defs>
        <linearGradient x1="85.872886%" y1="38.3769133%" x2="18.933878%" y2="65.033022%" id="linearGradient-1">
            <stop stop-color="#64646B" offset="0%"></stop>
            <stop stop-color="#909093" offset="51.575646%"></stop>
            <stop stop-color="#656469" offset="100%"></stop>
        </linearGradient>
        <filter color-interpolation-filters="auto" id="filter-2">
            <feColorMatrix in="SourceGraphic" type="matrix" values="0 0 0 0 1.000000 0 0 0 0 1.000000 0 0 0 0 1.000000 0 0 0 1.000000 0"></feColorMatrix>
        </filter>
        <radialGradient cx="50%" cy="50%" fx="50%" fy="50%" r="110.289766%" gradientTransform="translate(0.500000,0.500000),scale(0.482143,1.000000),rotate(-26.958899),translate(-0.500000,-0.500000)" id="radialGradient-3">
            <stop stop-color="#FCFCFC" offset="0%"></stop>
            <stop stop-color="#E3E3E3" offset="100%"></stop>
        </radialGradient>
        <rect id="path-4" x="0" y="0" width="280" height="135" rx="8"></rect>
    </defs>
    <g id="cambio-clave-tarjeta" stroke="none" stroke-width="1" fill="none" fill-rule="evenodd">
        <g id="Artboard" transform="translate(-3331.000000, -1684.000000)">
            <g id="Tarjetas-/-debito-/-cuentarut-Copy" transform="translate(3331.395676, 1684.668692)">
                <g id="Group-3">
                    <g id="Cards-cuentas-/-card-cuentas-+-ver-detalle">
                        <rect id="bg" fill="url(#linearGradient-1)" fill-rule="nonzero" x="0" y="0" width="280" height="135" rx="8"></rect>
                        <g id="Logo-tarjeta-/-visa" transform="translate(222.389474, 58.500000)" filter="url(#filter-2)">
                            <g>
                                <path d="M25.6385826,14.3383096 C26.5557946,14.3323278 27.4667649,14.4889444 28.3289429,14.800844 L28.3289429,14.800844 L27.8905775,17.1734739 L27.6155247,17.0535576 C26.9056181,16.7581514 26.1412097,16.6151418 25.3721251,16.6338505 C24.1945553,16.6338505 23.6530451,17.079254 23.6530451,17.5760501 C23.6530451,18.0728463 24.3234864,18.4240298 25.3721251,18.9293914 C27.1083961,19.7174129 27.8905775,20.668178 27.8905775,21.9101684 C27.8647913,24.1885784 25.819086,25.6618555 22.6645741,25.6618555 C21.5272252,25.6641153 20.3983439,25.4669595 19.3295588,25.0793853 L19.3295588,25.0793853 L19.7507334,22.6211009 L20.128931,22.7924099 C21.01411,23.1997592 21.9822743,23.3962364 22.9568177,23.3662951 C23.8163577,23.3662951 24.7532563,23.0322425 24.7532563,22.2956137 C24.7618517,21.7988175 24.3406771,21.4733304 23.1974889,20.9422724 C22.0543007,20.4112145 20.5672964,19.5375384 20.5672964,17.9614954 C20.5844873,15.8286981 22.6731694,14.3383096 25.6385826,14.3383096 Z M19.9054506,14.3381445 L18.0316534,25.3104874 L15.0318586,25.3104874 L16.9056559,14.3381445 L19.9054506,14.3381445 Z M33.8167138,14.33927 L33.9503347,14.3505162 L36.2710928,14.3505162 L38.7207818,25.3057283 L35.9358721,25.3057283 C35.9358721,25.3057283 35.6608193,24.046607 35.5662699,23.6697271 L35.5662699,23.6697271 L31.724126,23.6697271 L31.079471,25.2885974 L27.924959,25.2885974 L32.3859718,15.2670195 C32.635811,14.6410233 33.279933,14.2636557 33.9503347,14.3505162 Z M15.3412931,14.3381445 L10.5794413,25.2762256 L7.40773858,25.2762256 L4.77232006,15.8905924 C3.76177763,15.3298832 2.59493984,14.8817383 1.27921818,14.5776833 L1.27921818,14.5776833 L1.27921818,14.3464162 L6.36522492,14.3464162 C7.01780379,14.2749723 7.62593565,14.6730644 7.79145962,15.2800503 L7.79145962,15.2800503 L8.88580322,20.3165356 C8.87965156,20.3014585 8.8734501,20.2863959 8.86719887,20.2713481 L8.87755203,20.2996985 L9.18698644,21.8500452 L12.1266134,14.3381445 L15.3412931,14.3381445 Z M34.1738151,17.3141623 C34.0190978,17.725304 33.7784267,18.3591474 33.7784267,18.3591474 L33.7784267,18.3591474 L32.583666,21.4255789 L35.0677367,21.4255789 L34.3801047,18.256362 Z" id="Combined-Shape" fill="#1A1F71"></path>
                            </g>
                        </g>
                    </g>
                    <g id="Cards-cuentas-/-card-cuentas-+-ver-detalle">
                        <mask id="mask-5" fill="white">
                            <use xlink:href="#path-4"></use>
                        </mask>
                        <use id="bg" fill="url(#radialGradient-3)" fill-rule="nonzero" xlink:href="#path-4"></use>
                        <g id="Group-6" mask="url(#mask-5)">
                            <g transform="translate(182.947323, -1.027867)">
                                <g id="Group-4" stroke-width="1" fill="none" transform="translate(0.826323, 0.000000)">
                                    <path d="M10.3982506,44.0605994 L53.0234378,11.9677722 C54.4729926,10.8763914 56.5340086,11.1651826 57.6268459,12.6128054 L57.62775,12.6140036 C58.7205702,14.0629809 58.4307719,16.1222553 56.9803604,17.2142811 L14.3551732,49.3071083 C12.9056184,50.3984891 10.8446024,50.1096979 9.75176502,48.6620751 L9.75086094,48.6608769 C8.65804071,47.2118996 8.94783906,45.1526252 10.3982506,44.0605994 Z" id="Rectangle" fill="#577DE2"></path>
                                    <path d="M18.3248482,27.4452402 L53.5365564,0.934077776 C55.5829866,-0.606695119 58.4926563,-0.198989884 60.0354855,1.84471291 L60.0367618,1.84640441 C61.5795669,3.89201946 61.1704398,6.79923037 59.1228,8.3409139 L23.9110919,34.8520764 C21.8646616,36.3928493 18.9549919,35.985144 17.4121628,33.9414412 L17.4108864,33.9397497 C15.8680814,31.8941347 16.2772085,28.9869238 18.3248482,27.4452402 Z" id="Rectangle" fill="#152AB0"></path>
                                    <path d="M2.00293654,67.9909583 L74.5894255,13.3400395 C76.8063916,11.6708689 79.9585337,12.1125495 81.629932,14.3265609 L81.6313147,14.3283934 C83.3026868,16.5444763 82.8594658,19.6939548 80.6411894,21.364112 L8.0547005,76.0150308 C5.83773437,77.6842014 2.68559221,77.2425207 1.01419394,75.0285094 L1.01281124,75.0266769 C-0.658560891,72.8105939 -0.215339879,69.6611155 2.00293654,67.9909583 Z" id="Rectangle" fill="#577DE2"></path>
                                    <path d="M5.79357343,55.5751679 L63.2447877,12.3197123 C65.4617539,10.6505416 68.613896,11.0922223 70.2852943,13.3062337 L70.286677,13.3080661 C71.9580491,15.5241491 71.5148281,18.6736276 69.2965517,20.3437847 L11.8453374,63.5992403 C9.62837126,65.268411 6.4762291,64.8267303 4.80483083,62.6127189 L4.80344813,62.6108865 C3.132076,60.3948035 3.57529701,57.245325 5.79357343,55.5751679 Z" id="Rectangle" fill="#152AB0"></path>
                                    <path d="M5.5578327,73.845992 L71.0398066,24.5441164 C73.6831124,22.5539515 77.4414358,23.0805707 79.4342568,25.7203535 L79.4359054,25.7225383 C81.4286952,28.3647911 80.9002394,32.1199386 78.2553714,34.1112798 L12.7733974,83.4131553 C10.1300917,85.4033203 6.37176832,84.876701 4.37894729,82.2369182 L4.37729869,82.2347334 C2.38450884,79.5924806 2.91296467,75.8373332 5.5578327,73.845992 Z" id="Rectangle" fill="#152AB0"></path>
                                    <ellipse id="Oval" fill="#152AB0" cx="74.7595064" cy="8.76635442" rx="2.9007271" ry="2.89823863"></ellipse>
                                </g>
                                <g id="Group-5" stroke-width="1" fill="none" transform="translate(0.000000, 22.570086)">
                                    <path d="M13.0508588,60.5300531 L91.4382386,1.28810958 C94.2496555,-0.836643175 98.2470038,-0.274410528 100.366566,2.54389135 L100.368319,2.54622396 C102.487848,5.36716287 101.925783,9.37625754 99.1127047,11.5022661 L20.725325,70.7442096 C17.9139081,72.8689624 13.9165598,72.3067297 11.7969977,69.4884279 L11.7952443,69.4860952 C9.67571533,66.6651563 10.2377803,62.6560617 13.0508588,60.5300531 Z" id="Rectangle" fill="#FA002E"></path>
                                    <path d="M1.8472713,84.1662369 L91.3452266,16.5273793 C93.3898934,14.9821046 96.2970558,15.3910011 97.8385555,17.4406751 L97.8398307,17.4423716 C99.3813063,19.4939635 98.9725318,22.4096687 96.9266565,23.9558568 L7.42870122,91.5947143 C5.38403438,93.1399891 2.476872,92.7310926 0.9353723,90.6814185 L0.934097061,90.6797221 C-0.607378524,88.6281301 -0.198603986,85.7124249 1.8472713,84.1662369 Z" id="Rectangle" fill="#FE3953"></path>
                                    <path d="M22.4598567,80.0469282 L99.6133752,21.737486 C101.146875,20.5785299 103.327247,20.8852023 104.483372,22.4224579 L104.484328,22.4237302 C105.640435,23.9624241 105.333854,26.1492031 103.799448,27.3088441 L26.6459291,85.6182863 C25.112429,86.7772423 22.9320572,86.47057 21.7759324,84.9333144 L21.774976,84.9320421 C20.6188693,83.3933481 20.9254502,81.2065692 22.4598567,80.0469282 Z" id="Rectangle" fill="#FF617E"></path>
                                    <path d="M29.7437622,82.6807876 L103.810706,26.7040508 C106.196151,24.9012302 109.58784,25.3782761 111.386257,27.7695626 L111.387745,27.7715417 C113.186133,30.1650657 112.709229,33.5667217 110.322375,35.3706078 L36.2554304,91.3473446 C33.8699858,93.1501651 30.4782963,92.6731192 28.67988,90.2818328 L28.6783922,90.2798536 C26.880004,87.8863297 27.3569077,84.4846736 29.7437622,82.6807876 Z" id="Rectangle" fill="#FA002E"></path>
                                    <path d="M30.7517734,93.4535992 L105.436032,37.0103213 C107.651088,35.3362737 110.800514,35.7792448 112.470472,37.9997251 L112.471854,38.0015629 C114.141786,40.2241209 113.698946,43.3828015 111.482582,45.0578385 L36.7983225,101.501116 C34.5832667,103.175164 31.4338408,102.732193 29.7638828,100.511713 L29.7625013,100.509875 C28.0925694,98.2873169 28.5354085,95.1286362 30.7517734,93.4535992 Z" id="Rectangle" fill="#FF617E"></path>
                                    <path d="M40.4886296,97.9491004 L114.555574,41.9723636 C116.941018,40.1695431 120.332708,40.646589 122.131124,43.0378754 L122.132612,43.0398546 C123.931,45.4333785 123.454097,48.8350346 121.067242,50.6389206 L47.0002978,106.615657 C44.6148532,108.418478 41.2231637,107.941432 39.4247474,105.550146 L39.4232596,105.548166 C37.6248714,103.154643 38.1017751,99.7529864 40.4886296,97.9491004 Z" id="Rectangle" fill="#FA002E"></path>
                                    <path d="M49.6911257,103.530269 L126.227329,45.6873681 C127.931218,44.3996391 130.353854,44.7403862 131.638437,46.4484479 L131.6395,46.4498616 C132.924063,48.1595216 132.583417,50.5892759 130.878521,51.877766 L54.3423173,109.720667 C52.6384283,111.008396 50.215793,110.667649 48.9312099,108.959587 L48.9301472,108.958174 C47.6455842,107.248514 47.9862297,104.818759 49.6911257,103.530269 Z" id="Rectangle" fill="#FA002E"></path>
                                    <path d="M60.5058668,105.077909 L135.499066,48.4011468 C137.032567,47.2421908 139.212938,47.5488631 140.369063,49.0861187 L140.37002,49.087391 C141.526126,50.626085 141.219545,52.8128639 139.685139,53.9725049 L64.6919392,110.649267 C63.1584391,111.808223 60.9780673,111.501551 59.8219425,109.964295 L59.8209861,109.963023 C58.6648794,108.424329 58.9714603,106.23755 60.5058668,105.077909 Z" id="Rectangle" fill="#FF617E"></path>
                                    <path d="M71.2516196,105.15595 L146.244819,48.4791878 C147.778319,47.3202318 149.958691,47.6269041 151.114816,49.1641597 L151.115772,49.165432 C152.271879,50.704126 151.965298,52.8909049 150.430892,54.0505459 L75.4376921,110.727308 C73.904192,111.886264 71.7238202,111.579592 70.5676954,110.042336 L70.566739,110.041064 C69.4106323,108.50237 69.7172132,106.315591 71.2516196,105.15595 Z" id="Rectangle" fill="#FA002E"></path>
                                    <ellipse id="Oval" fill="#FA002E" cx="9.39142442" cy="73.6095665" rx="2.8982275" ry="2.90670672"></ellipse>
                                </g>
                                <path d="M22.3940126,56.9126854 C22.9627232,55.3292748 22.0766367,53.5316647 39.0790811,44.545128 C39.0413431,35.1397797 39.4370882,29.6898043 40.2663162,28.1952019 C41.0955442,26.7005995 44.4293124,30.2405668 50.2676208,38.8151039 C66.5178226,33.8007179 75.5663705,31.9423044 77.4132645,33.2398635 C79.2601585,34.5374226 73.8827559,41.4855325 61.2810566,54.0841932 C66.121826,75.4420718 67.8532419,87.0898283 66.4753045,89.0274628 C65.0973671,90.9650972 58.7426781,83.9251515 47.4112374,67.9076256 C38.2801692,77.7335516 32.94931,82.6465146 31.4186598,82.6465146 C29.8880096,82.6465146 30.8122114,75.3448116 34.1912651,60.7414057 C25.9472898,59.2445326 22.0148723,57.9682925 22.3940126,56.9126854 Z" id="Path" fill="#FFFFFF"></path>
                            </g>
                        </g>
                    </g>
                </g>
                <g id="Logo-tarjeta-/-visa" transform="translate(222.861131, 107.000000)" fill="#FFFFFF">
                    <path d="M15.1106958,11.660378 L17.1695281,4.54747351e-13 L20.4655486,4.54747351e-13 L18.4067164,11.660378 L15.1106958,11.660378 Z M29.7208498,0.491713624 L29.2391964,3.01312244 L28.9369825,2.88568662 C28.1569736,2.57175655 27.3170809,2.41977935 26.4720502,2.43966123 C25.1781969,2.43966123 24.5832133,2.91299429 24.5832133,3.44094271 C24.5832133,3.96889113 25.3198597,4.34209605 26.4720502,4.87914702 C28.3797756,5.71658243 29.2391964,6.72696648 29.2391964,8.04683752 C29.2108639,10.4681182 26.9631478,12.033779 23.497132,12.033779 C22.2474714,12.0361805 21.0071145,11.8266618 19.8327882,11.4147842 L20.2955533,8.80234991 L20.7110974,8.98440108 C21.6836867,9.41729381 22.7474559,9.62609131 23.8182342,9.59427249 C24.7626527,9.59427249 25.7920689,9.2392727 25.7920689,8.45645267 C25.8015131,7.92850426 25.338748,7.58260701 24.0826714,7.01824837 C22.8265949,6.45388971 21.1927509,5.5254287 21.1927509,3.85055787 C21.2116393,1.58402069 23.5065761,0.000175443125 26.76482,0.000175443125 C27.7726054,-0.00618141182 28.7735329,0.160256018 29.7208498,0.491713624 Z M38.4472767,0.0131475393 L41.1388693,11.6553204 L38.0789534,11.6553204 C38.0789534,11.6553204 37.7767396,10.3172443 37.6728535,9.91673161 L33.4513028,9.91673161 L32.742989,11.6371152 L29.2769731,11.6371152 L34.1785051,0.987121339 C34.4530156,0.321871193 35.1607438,-0.0791597516 35.8973467,0.0131475393 L38.4472767,0.0131475393 Z M34.3957214,7.53186119 L37.1250907,7.53186119 L36.369556,4.1639144 L36.1428955,3.16263291 C35.9729002,3.59955575 35.7084631,4.27314511 35.7084631,4.27314511 L34.3957214,7.53186119 Z M3.83620518,1.64881107 C2.72629575,1.05340212 1.44485073,0.577502511 0,0.254559428 L0,0.00879033779 L5.5882433,0.00879033779 C6.30526347,-0.0671334609 6.97344756,0.355921462 7.15531681,1.00096926 L8.35772542,6.3532739 C8.3482656,6.33084934 8.33869858,6.30845506 8.32902448,6.28609152 C8.33561701,6.30249849 8.34216205,6.31892837 8.34865944,6.335381 L8.68865009,7.98294417 L11.9185614,4.54747351e-13 L15.4506865,4.54747351e-13 L10.218608,11.6239677 L6.73370382,11.6239677 L3.83620518,1.64881107 Z" id="Combined-Shape"></path>
                    <path d="M22.0490265,15.6096059 L23.6500117,15.6096059 C24.3601959,15.6096059 24.9112988,15.7994644 25.3033369,16.1791872 C25.6953749,16.5589099 25.891391,17.0915401 25.891391,17.7770936 C25.891391,18.4626471 25.6953749,18.9963035 25.3033369,19.3780788 C24.9112988,19.7598541 24.3601959,19.9507389 23.6500117,19.9507389 L22.0490265,19.9507389 L22.0490265,15.6096059 Z M23.6007506,19.3041872 C24.5982926,19.3041872 25.0970561,18.7951611 25.0970561,17.7770936 C25.0970561,16.7631312 24.5982926,16.2561576 23.6007506,16.2561576 L22.8433615,16.2561576 L22.8433615,19.3041872 L23.6007506,19.3041872 Z M29.2657753,18.5837438 L27.2152827,18.5837438 C27.2399133,18.8628914 27.3240668,19.0701964 27.4677457,19.205665 C27.6114246,19.3411337 27.8166771,19.408867 28.0835093,19.408867 C28.4160232,19.408867 28.7197969,19.3021357 28.9948393,19.08867 L29.2165142,19.6182266 C29.0769404,19.7331697 28.9014496,19.8255333 28.6900364,19.8953202 C28.4786232,19.9651071 28.2661869,20 28.0527211,20 C27.5601078,20 27.1711544,19.8604283 26.8858492,19.5812808 C26.600544,19.3021333 26.4578935,18.9203637 26.4578935,18.4359606 C26.4578935,18.1280773 26.5194692,17.8550915 26.6426226,17.6169951 C26.7657759,17.3788986 26.9392142,17.1941714 27.1629428,17.0628079 C27.3866713,16.9314443 27.6401581,16.8657635 27.9234107,16.8657635 C28.3380269,16.8657635 28.6654046,16.9991776 28.9055536,17.2660099 C29.1457026,17.5328421 29.2657753,17.900244 29.2657753,18.3682266 L29.2657753,18.5837438 Z M27.9418837,17.4076355 C27.7366281,17.4076355 27.5713999,17.4733163 27.446194,17.6046798 C27.3209881,17.7360433 27.2440184,17.9248756 27.2152827,18.1711823 L28.6069083,18.1711823 C28.5986981,17.9207705 28.5371223,17.730912 28.4221792,17.601601 C28.3072361,17.47229 28.1471392,17.4076355 27.9418837,17.4076355 Z M28.1697162,16.5455665 L27.6771053,16.5455665 L28.2867112,15.2894089 L29.0687309,15.2894089 L28.1697162,16.5455665 Z M31.6241497,16.8657635 C31.8868768,16.8657635 32.118812,16.9293918 32.3199625,17.0566502 C32.5211129,17.1839087 32.678131,17.3645308 32.7910216,17.5985222 C32.9039121,17.8325135 32.9603566,18.1054993 32.9603566,18.4174877 C32.9603566,18.7294761 32.9039121,19.0055407 32.7910216,19.2456897 C32.678131,19.4858386 32.5200866,19.6715921 32.3168837,19.8029557 C32.1136807,19.9343192 31.8827716,20 31.6241497,20 C31.4065788,20 31.2126152,19.9527919 31.0422531,19.8583744 C30.871891,19.7639568 30.7415557,19.6325953 30.6512433,19.4642857 L30.6512433,19.9507389 L29.8938541,19.9507389 L29.8938541,15.6096059 L30.6635585,15.6096059 L30.6635585,17.3768473 C30.753871,17.2126429 30.88318,17.0864126 31.0514896,16.9981527 C31.2197991,16.9098928 31.4106839,16.8657635 31.6241497,16.8657635 Z M31.4209477,19.4027094 C31.6631492,19.4027094 31.8519815,19.3165033 31.9874502,19.1440887 C32.1229188,18.971674 32.1906521,18.7294761 32.1906521,18.4174877 C32.1906521,18.1096044 32.1239451,17.873564 31.990529,17.7093596 C31.8571129,17.5451552 31.6672543,17.4630542 31.4209477,17.4630542 C31.174641,17.4630542 30.9847825,17.5461814 30.8513664,17.7124384 C30.7179503,17.8786954 30.6512433,18.1178145 30.6512433,18.429803 C30.6512433,18.7417914 30.7179503,18.9819368 30.8513664,19.1502463 C30.9847825,19.3185558 31.174641,19.4027094 31.4209477,19.4027094 Z M33.594593,19.9507389 L33.594593,16.9396552 L34.3642974,16.9396552 L34.3642974,19.9507389 L33.594593,19.9507389 Z M33.5514896,15.5418719 L34.4012433,15.5418719 L34.4012433,16.2992611 L33.5514896,16.2992611 L33.5514896,15.5418719 Z M36.6980413,19.4211823 C36.7883537,19.4211823 36.8827699,19.4150247 36.9812925,19.4027094 L36.9443467,19.9753695 C36.8211934,19.9876848 36.7083045,19.9938424 36.6056768,19.9938424 C36.1828503,19.9938424 35.8708666,19.8963474 35.6697162,19.7013547 C35.4685657,19.5063619 35.367992,19.2159297 35.367992,18.8300493 L35.367992,17.5184729 L34.7891743,17.5184729 L34.7891743,16.9396552 L35.367992,16.9396552 L35.367992,16.0406404 L36.1376965,16.0406404 L36.1376965,16.9396552 L36.9320314,16.9396552 L36.9320314,17.5184729 L36.1376965,17.5184729 L36.1376965,18.817734 C36.1376965,19.2200349 36.3244762,19.4211823 36.6980413,19.4211823 Z M38.8039526,20 C38.4960693,20 38.2261623,19.9363717 37.9942236,19.8091133 C37.7622848,19.6818549 37.5826889,19.4991802 37.4554304,19.2610837 C37.328172,19.0229873 37.2645437,18.7458965 37.2645437,18.429803 C37.2645437,18.1137094 37.328172,17.8376449 37.4554304,17.601601 C37.5826889,17.3655571 37.7622848,17.1839087 37.9942236,17.0566502 C38.2261623,16.9293918 38.4960693,16.8657635 38.8039526,16.8657635 C39.1118359,16.8657635 39.3817429,16.9293918 39.6136817,17.0566502 C39.8456204,17.1839087 40.0241901,17.3655571 40.149396,17.601601 C40.2746018,17.8376449 40.3372038,18.1137094 40.3372038,18.429803 C40.3372038,18.7458965 40.2746018,19.0229873 40.149396,19.2610837 C40.0241901,19.4991802 39.8456204,19.6818549 39.6136817,19.8091133 C39.3817429,19.9363717 39.1118359,20 38.8039526,20 Z M38.797795,19.4027094 C39.0482067,19.4027094 39.2390915,19.3206084 39.3704551,19.1564039 C39.5018186,18.9921995 39.5674994,18.7500016 39.5674994,18.429803 C39.5674994,18.1137094 39.5018186,17.8725378 39.3704551,17.7062808 C39.2390915,17.5400238 39.0502593,17.4568966 38.8039526,17.4568966 C38.557646,17.4568966 38.3677874,17.5400238 38.2343713,17.7062808 C38.1009552,17.8725378 38.0342482,18.1137094 38.0342482,18.429803 C38.0342482,18.7500016 38.099929,18.9921995 38.2312925,19.1564039 C38.3626561,19.3206084 38.5514883,19.4027094 38.797795,19.4027094 Z" id="Débito" fill-rule="nonzero"></path>
                </g>
            </g>
        </g>
    </g>
</svg>