<?xml version="1.0" encoding="UTF-8"?>
<svg width="281px" height="136px" viewBox="0 0 281 136" version="1.1" xmlns="http://www.w3.org/2000/svg" xmlns:xlink="http://www.w3.org/1999/xlink">
    <title>Tarjetas / debito / cuentapro (chequera) Copy</title>
    <defs>
        <rect id="path-1" x="0" y="0" width="280" height="135" rx="8"></rect>
    </defs>
    <g id="cambio-clave-tarjeta" stroke="none" stroke-width="1" fill="none" fill-rule="evenodd">
        <g id="Artboard" transform="translate(-3331.000000, -1868.000000)">
            <g id="Tarjetas-/-debito-/-cuentapro-(chequera)-Copy" transform="translate(3331.207584, 1868.709346)">
                <g id="Group-13">
                    <mask id="mask-2" fill="white">
                        <use xlink:href="#path-1"></use>
                    </mask>
                    <use id="bg" fill="#F6F6F6" fill-rule="nonzero" xlink:href="#path-1"></use>
                    <g id="Group-34" mask="url(#mask-2)">
                        <g transform="translate(-103.738583, -74.000000)" id="Rectangle">
                            <path d="M351.669162,20.9510527 L361.931975,19.7649628 C367.966938,19.0674925 373.424652,23.3943845 374.122123,29.4293465 C374.219102,30.2684749 374.219102,31.1159815 374.122123,31.9551099 L352.079114,222.685411 C351.492615,227.760179 347.489499,231.763295 342.41473,232.349794 L332.151917,233.535884 C326.116955,234.233355 320.65924,229.906463 319.96177,223.871501 C319.86479,223.032372 319.86479,222.184866 319.96177,221.345737 L342.004778,30.6154364 C342.591277,25.5406678 346.594393,21.5375519 351.669162,20.9510527 Z" fill="#D5D5D5" transform="translate(347.041946, 126.650424) rotate(-45.000000) translate(-347.041946, -126.650424) "></path>
                            <path d="M343.116272,14.5335333 C346.639879,14.1263044 349.826451,16.6526281 350.23368,20.1762354 C350.290303,20.6661737 350.290303,21.1610037 350.23368,21.6509419 L333.563286,165.893924 C333.01847,170.608023 329.29986,174.326634 324.58576,174.87145 C321.062153,175.278679 317.87558,172.752355 317.468351,169.228748 C317.411728,168.73881 317.411728,168.24398 317.468351,167.754041 L334.138746,23.5110595 C334.683562,18.7969599 338.402172,15.0783494 343.116272,14.5335333 Z" fill="#FD8115" transform="translate(333.851016, 94.702492) rotate(-45.000000) translate(-333.851016, -94.702492) "></path>
                            <path d="M411.23352,25.0581228 C414.42463,24.689321 417.310509,26.9772542 417.679311,30.1683646 C417.730591,30.612071 417.730591,31.0602075 417.679311,31.5039139 L394.726745,230.104288 C394.23334,234.373553 390.865627,237.741265 386.596362,238.234671 C383.405252,238.603473 380.519373,236.31554 380.150571,233.124429 C380.099291,232.680723 380.099291,232.232586 380.150571,231.78888 L403.103137,33.1885059 C403.596543,28.9192411 406.964255,25.5515286 411.23352,25.0581228 Z" fill="#E3E3E3" transform="translate(398.914941, 131.646397) rotate(-45.000000) translate(-398.914941, -131.646397) "></path>
                            <path d="M418.420206,5.18206662 L451.008252,1.41581359 C457.043214,0.718343294 462.500928,5.04523528 463.198399,11.0801973 C463.295378,11.9193257 463.295378,12.7668323 463.198399,13.6059607 L441.15539,204.336262 C440.568891,209.41103 436.565775,213.414146 431.491006,214.000645 L398.902961,217.766898 C392.867999,218.464369 387.410284,214.137477 386.712813,208.102515 C386.615834,207.263386 386.615834,206.41588 386.712813,205.576751 L408.755822,14.8464504 C409.342321,9.77168175 413.345437,5.76856581 418.420206,5.18206662 Z" fill="#D5D5D5" transform="translate(424.955606, 109.591356) rotate(-45.000000) translate(-424.955606, -109.591356) "></path>
                            <path d="M331.029546,30.4584335 C334.220656,30.0896317 337.106535,32.3775649 337.475337,35.5686753 C337.526617,36.0123817 337.526617,36.4605182 337.475337,36.9042246 L314.522771,235.504599 C314.029365,239.773863 310.661653,243.141576 306.392388,243.634982 C303.201278,244.003784 300.315399,241.71585 299.946597,238.52474 C299.895317,238.081034 299.895317,237.632897 299.946597,237.189191 L322.899163,38.5888166 C323.392568,34.3195519 326.760281,30.9518393 331.029546,30.4584335 Z" fill="#D5D5D5" transform="translate(318.710967, 137.046708) rotate(-45.000000) translate(-318.710967, -137.046708) "></path>
                            <path d="M221.517535,9.85389693 C224.723891,9.48333311 227.623558,11.7821975 227.994122,14.9885542 C228.044605,15.4253657 228.045629,15.8664793 227.997175,16.3035205 L202.875116,242.896102 C202.402028,247.163193 199.043431,250.537422 194.778582,251.030317 C191.572225,251.400881 188.672558,249.102017 188.301994,245.89566 C188.251511,245.458849 188.250487,245.017735 188.298941,244.580694 L213.421001,17.9881124 C213.894088,13.7210207 217.252685,10.3467924 221.517535,9.85389693 Z" fill="#D5D5D5" transform="translate(208.148058, 130.442107) rotate(-45.000000) translate(-208.148058, -130.442107) "></path>
                            <path d="M173.953757,14.2725938 L174.839924,14.1701781 C179.036127,13.6852161 182.830962,16.6937715 183.315924,20.8899747 C183.382818,21.468788 183.383352,22.0533496 183.317516,22.6322842 L157.722346,247.705662 C157.144277,252.788965 153.137909,256.802665 148.055671,257.390027 L147.169505,257.492443 C142.973301,257.977405 139.178467,254.96885 138.693505,250.772646 C138.626611,250.193833 138.626076,249.609271 138.691912,249.030337 L164.287083,23.9569586 C164.865152,18.8736558 168.87152,14.8599562 173.953757,14.2725938 Z" fill="#D5D5D5" transform="translate(161.004714, 135.831311) rotate(-45.000000) translate(-161.004714, -135.831311) "></path>
                            <path d="M144.238623,21.7145808 L145.13166,21.6113711 C149.324542,21.126793 153.116372,24.1329673 153.600951,28.3258494 C153.668018,28.9061625 153.668328,29.4922518 153.601874,30.0726354 L129.273173,242.549616 C128.691545,247.629321 124.686547,251.638555 119.60746,252.225553 L118.714424,252.328763 C114.521542,252.813341 110.729711,249.807166 110.245133,245.614284 C110.178065,245.033971 110.177755,244.447882 110.24421,243.867498 L134.572911,31.3905177 C135.154539,26.3108129 139.159536,22.301579 144.238623,21.7145808 Z" fill="#E3E3E3" transform="translate(131.923042, 136.970067) rotate(-45.000000) translate(-131.923042, -136.970067) "></path>
                            <path d="M198.094078,11.1658715 C201.299005,10.795473 204.197378,13.093312 204.567777,16.2982386 C204.618335,16.735699 204.619265,17.1774735 204.570548,17.6151429 L179.302485,244.623357 C178.827496,248.890657 175.468044,252.264277 171.202781,252.75722 C167.997854,253.127619 165.09948,250.82978 164.729082,247.624853 C164.678524,247.187393 164.677594,246.745618 164.726311,246.307949 L189.994374,19.2997348 C190.469363,15.0324346 193.828815,11.6588149 198.094078,11.1658715 Z" fill="#E3E3E3" transform="translate(184.648429, 131.961546) rotate(-45.000000) translate(-184.648429, -131.961546) "></path>
                            <path d="M117.735597,21.1720497 C120.941732,20.8015116 123.841198,23.1002165 124.211736,26.3063508 C124.26223,26.7432633 124.26324,27.1844797 124.214745,27.6216186 L100.083639,245.141856 C99.6102559,249.40898 96.2515258,252.783113 91.9866122,253.276016 C88.7804779,253.646555 85.8810121,251.34785 85.5104739,248.141715 C85.4599793,247.704803 85.4589698,247.263586 85.5074649,246.826448 L109.638571,29.3062105 C110.111954,25.0390863 113.470684,21.6649527 117.735597,21.1720497 Z" fill="#D5D5D5" transform="translate(104.861105, 137.224033) rotate(-45.000000) translate(-104.861105, -137.224033) "></path>
                            <path d="M103.529714,40.7681904 L104.421168,40.7960913 C110.00834,40.9709599 114.395879,45.6420168 114.221011,51.2291889 C114.212168,51.5117264 114.191492,51.7937693 114.159039,52.074576 L91.9468418,244.268806 C91.2903378,249.949301 86.3909714,254.179426 80.6754644,254.00054 L79.7840105,253.97264 C74.1968383,253.797771 69.8092994,249.126714 69.984168,243.539542 C69.9930109,243.257005 70.0136862,242.974962 70.0461395,242.694155 L92.2583367,50.499925 C92.9148407,44.8194301 97.8142072,40.5893052 103.529714,40.7681904 Z" fill="#E3E3E3" transform="translate(92.102589, 147.384365) rotate(-45.000000) translate(-92.102589, -147.384365) "></path>
                            <path d="M260.326231,-5.44753063 L292.540637,-9.1706015 C298.575599,-9.8680718 304.033313,-5.54117982 304.730784,0.493782234 C304.827763,1.33291064 304.827763,2.18041722 304.730784,3.01954562 L275.402915,256.783147 C274.816416,261.857916 270.8133,265.861031 265.738531,266.447531 L233.524125,270.170602 C227.489163,270.868072 222.031448,266.54118 221.333978,260.506218 C221.236999,259.667089 221.236999,258.819583 221.333978,257.980454 L250.661847,4.2168531 C251.248346,-0.857915502 255.251462,-4.86103144 260.326231,-5.44753063 Z" fill="#E3E3E3" transform="translate(263.032381, 130.500000) rotate(-45.000000) translate(-263.032381, -130.500000) "></path>
                        </g>
                    </g>
                </g>
                <g id="Logo-tarjeta-/-visa" transform="translate(224.641441, 104.960492)" fill="#031D78">
                    <path d="M15.1106958,11.660378 L17.1695281,4.54747351e-13 L20.4655486,4.54747351e-13 L18.4067164,11.660378 L15.1106958,11.660378 Z M29.7208498,0.491713624 L29.2391964,3.01312244 L28.9369825,2.88568662 C28.1569736,2.57175655 27.3170809,2.41977935 26.4720502,2.43966123 C25.1781969,2.43966123 24.5832133,2.91299429 24.5832133,3.44094271 C24.5832133,3.96889113 25.3198597,4.34209605 26.4720502,4.87914702 C28.3797756,5.71658243 29.2391964,6.72696648 29.2391964,8.04683752 C29.2108639,10.4681182 26.9631478,12.033779 23.497132,12.033779 C22.2474714,12.0361805 21.0071145,11.8266618 19.8327882,11.4147842 L20.2955533,8.80234991 L20.7110974,8.98440108 C21.6836867,9.41729381 22.7474559,9.62609131 23.8182342,9.59427249 C24.7626527,9.59427249 25.7920689,9.2392727 25.7920689,8.45645267 C25.8015131,7.92850426 25.338748,7.58260701 24.0826714,7.01824837 C22.8265949,6.45388971 21.1927509,5.5254287 21.1927509,3.85055787 C21.2116393,1.58402069 23.5065761,0.000175443125 26.76482,0.000175443125 C27.7726054,-0.00618141182 28.7735329,0.160256018 29.7208498,0.491713624 Z M38.4472767,0.0131475393 L41.1388693,11.6553204 L38.0789534,11.6553204 C38.0789534,11.6553204 37.7767396,10.3172443 37.6728535,9.91673161 L33.4513028,9.91673161 L32.742989,11.6371152 L29.2769731,11.6371152 L34.1785051,0.987121339 C34.4530156,0.321871193 35.1607438,-0.0791597516 35.8973467,0.0131475393 L38.4472767,0.0131475393 Z M34.3957214,7.53186119 L37.1250907,7.53186119 L36.369556,4.1639144 L36.1428955,3.16263291 C35.9729002,3.59955575 35.7084631,4.27314511 35.7084631,4.27314511 L34.3957214,7.53186119 Z M3.83620518,1.64881107 C2.72629575,1.05340212 1.44485073,0.577502511 0,0.254559428 L0,0.00879033779 L5.5882433,0.00879033779 C6.30526347,-0.0671334609 6.97344756,0.355921462 7.15531681,1.00096926 L8.35772542,6.3532739 C8.3482656,6.33084934 8.33869858,6.30845506 8.32902448,6.28609152 C8.33561701,6.30249849 8.34216205,6.31892837 8.34865944,6.335381 L8.68865009,7.98294417 L11.9185614,4.54747351e-13 L15.4506865,4.54747351e-13 L10.218608,11.6239677 L6.73370382,11.6239677 L3.83620518,1.64881107 Z" id="Combined-Shape"></path>
                    <path d="M22.0490265,15.6096059 L23.6500117,15.6096059 C24.3601959,15.6096059 24.9112988,15.7994644 25.3033369,16.1791872 C25.6953749,16.5589099 25.891391,17.0915401 25.891391,17.7770936 C25.891391,18.4626471 25.6953749,18.9963035 25.3033369,19.3780788 C24.9112988,19.7598541 24.3601959,19.9507389 23.6500117,19.9507389 L22.0490265,19.9507389 L22.0490265,15.6096059 Z M23.6007506,19.3041872 C24.5982926,19.3041872 25.0970561,18.7951611 25.0970561,17.7770936 C25.0970561,16.7631312 24.5982926,16.2561576 23.6007506,16.2561576 L22.8433615,16.2561576 L22.8433615,19.3041872 L23.6007506,19.3041872 Z M29.2657753,18.5837438 L27.2152827,18.5837438 C27.2399133,18.8628914 27.3240668,19.0701964 27.4677457,19.205665 C27.6114246,19.3411337 27.8166771,19.408867 28.0835093,19.408867 C28.4160232,19.408867 28.7197969,19.3021357 28.9948393,19.08867 L29.2165142,19.6182266 C29.0769404,19.7331697 28.9014496,19.8255333 28.6900364,19.8953202 C28.4786232,19.9651071 28.2661869,20 28.0527211,20 C27.5601078,20 27.1711544,19.8604283 26.8858492,19.5812808 C26.600544,19.3021333 26.4578935,18.9203637 26.4578935,18.4359606 C26.4578935,18.1280773 26.5194692,17.8550915 26.6426226,17.6169951 C26.7657759,17.3788986 26.9392142,17.1941714 27.1629428,17.0628079 C27.3866713,16.9314443 27.6401581,16.8657635 27.9234107,16.8657635 C28.3380269,16.8657635 28.6654046,16.9991776 28.9055536,17.2660099 C29.1457026,17.5328421 29.2657753,17.900244 29.2657753,18.3682266 L29.2657753,18.5837438 Z M27.9418837,17.4076355 C27.7366281,17.4076355 27.5713999,17.4733163 27.446194,17.6046798 C27.3209881,17.7360433 27.2440184,17.9248756 27.2152827,18.1711823 L28.6069083,18.1711823 C28.5986981,17.9207705 28.5371223,17.730912 28.4221792,17.601601 C28.3072361,17.47229 28.1471392,17.4076355 27.9418837,17.4076355 Z M28.1697162,16.5455665 L27.6771053,16.5455665 L28.2867112,15.2894089 L29.0687309,15.2894089 L28.1697162,16.5455665 Z M31.6241497,16.8657635 C31.8868768,16.8657635 32.118812,16.9293918 32.3199625,17.0566502 C32.5211129,17.1839087 32.678131,17.3645308 32.7910216,17.5985222 C32.9039121,17.8325135 32.9603566,18.1054993 32.9603566,18.4174877 C32.9603566,18.7294761 32.9039121,19.0055407 32.7910216,19.2456897 C32.678131,19.4858386 32.5200866,19.6715921 32.3168837,19.8029557 C32.1136807,19.9343192 31.8827716,20 31.6241497,20 C31.4065788,20 31.2126152,19.9527919 31.0422531,19.8583744 C30.871891,19.7639568 30.7415557,19.6325953 30.6512433,19.4642857 L30.6512433,19.9507389 L29.8938541,19.9507389 L29.8938541,15.6096059 L30.6635585,15.6096059 L30.6635585,17.3768473 C30.753871,17.2126429 30.88318,17.0864126 31.0514896,16.9981527 C31.2197991,16.9098928 31.4106839,16.8657635 31.6241497,16.8657635 Z M31.4209477,19.4027094 C31.6631492,19.4027094 31.8519815,19.3165033 31.9874502,19.1440887 C32.1229188,18.971674 32.1906521,18.7294761 32.1906521,18.4174877 C32.1906521,18.1096044 32.1239451,17.873564 31.990529,17.7093596 C31.8571129,17.5451552 31.6672543,17.4630542 31.4209477,17.4630542 C31.174641,17.4630542 30.9847825,17.5461814 30.8513664,17.7124384 C30.7179503,17.8786954 30.6512433,18.1178145 30.6512433,18.429803 C30.6512433,18.7417914 30.7179503,18.9819368 30.8513664,19.1502463 C30.9847825,19.3185558 31.174641,19.4027094 31.4209477,19.4027094 Z M33.594593,19.9507389 L33.594593,16.9396552 L34.3642974,16.9396552 L34.3642974,19.9507389 L33.594593,19.9507389 Z M33.5514896,15.5418719 L34.4012433,15.5418719 L34.4012433,16.2992611 L33.5514896,16.2992611 L33.5514896,15.5418719 Z M36.6980413,19.4211823 C36.7883537,19.4211823 36.8827699,19.4150247 36.9812925,19.4027094 L36.9443467,19.9753695 C36.8211934,19.9876848 36.7083045,19.9938424 36.6056768,19.9938424 C36.1828503,19.9938424 35.8708666,19.8963474 35.6697162,19.7013547 C35.4685657,19.5063619 35.367992,19.2159297 35.367992,18.8300493 L35.367992,17.5184729 L34.7891743,17.5184729 L34.7891743,16.9396552 L35.367992,16.9396552 L35.367992,16.0406404 L36.1376965,16.0406404 L36.1376965,16.9396552 L36.9320314,16.9396552 L36.9320314,17.5184729 L36.1376965,17.5184729 L36.1376965,18.817734 C36.1376965,19.2200349 36.3244762,19.4211823 36.6980413,19.4211823 Z M38.8039526,20 C38.4960693,20 38.2261623,19.9363717 37.9942236,19.8091133 C37.7622848,19.6818549 37.5826889,19.4991802 37.4554304,19.2610837 C37.328172,19.0229873 37.2645437,18.7458965 37.2645437,18.429803 C37.2645437,18.1137094 37.328172,17.8376449 37.4554304,17.601601 C37.5826889,17.3655571 37.7622848,17.1839087 37.9942236,17.0566502 C38.2261623,16.9293918 38.4960693,16.8657635 38.8039526,16.8657635 C39.1118359,16.8657635 39.3817429,16.9293918 39.6136817,17.0566502 C39.8456204,17.1839087 40.0241901,17.3655571 40.149396,17.601601 C40.2746018,17.8376449 40.3372038,18.1137094 40.3372038,18.429803 C40.3372038,18.7458965 40.2746018,19.0229873 40.149396,19.2610837 C40.0241901,19.4991802 39.8456204,19.6818549 39.6136817,19.8091133 C39.3817429,19.9363717 39.1118359,20 38.8039526,20 Z M38.797795,19.4027094 C39.0482067,19.4027094 39.2390915,19.3206084 39.3704551,19.1564039 C39.5018186,18.9921995 39.5674994,18.7500016 39.5674994,18.429803 C39.5674994,18.1137094 39.5018186,17.8725378 39.3704551,17.7062808 C39.2390915,17.5400238 39.0502593,17.4568966 38.8039526,17.4568966 C38.557646,17.4568966 38.3677874,17.5400238 38.2343713,17.7062808 C38.1009552,17.8725378 38.0342482,18.1137094 38.0342482,18.429803 C38.0342482,18.7500016 38.099929,18.9921995 38.2312925,19.1564039 C38.3626561,19.3206084 38.5514883,19.4027094 38.797795,19.4027094 Z" id="Débito" fill-rule="nonzero"></path>
                </g>
            </g>
        </g>
    </g>
</svg>