<?xml version="1.0" encoding="UTF-8"?>
<svg width="281px" height="136px" viewBox="0 0 281 136" version="1.1" xmlns="http://www.w3.org/2000/svg" xmlns:xlink="http://www.w3.org/1999/xlink">
    <title>Tarjetas / debito / debito cuenta corriente Copy</title>
    <defs>
        <rect id="path-1" x="0" y="0" width="280" height="135" rx="8"></rect>
    </defs>
    <g id="cambio-clave-tarjeta" stroke="none" stroke-width="1" fill="none" fill-rule="evenodd">
        <g id="Artboard" transform="translate(-3331.000000, -2040.000000)">
            <g id="Tarjetas-/-debito-/-debito-cuenta-corriente-Copy" transform="translate(3331.207584, 2040.676992)">
                <g id="Group-13">
                    <mask id="mask-2" fill="white">
                        <use xlink:href="#path-1"></use>
                    </mask>
                    <use id="bg" fill="#EDEDED" fill-rule="nonzero" xlink:href="#path-1"></use>
                    <g id="Group-34" mask="url(#mask-2)">
                        <g transform="translate(-102.751628, -74.000000)" id="Rectangle">
                            <path d="M350.682207,20.9510527 L360.945021,19.7649628 C366.979983,19.0674925 372.437698,23.3943845 373.135168,29.4293465 C373.232147,30.2684749 373.232147,31.1159815 373.135168,31.9551099 L351.092159,222.685411 C350.50566,227.760179 346.502544,231.763295 341.427776,232.349794 L331.164962,233.535884 C325.13,234.233355 319.672285,229.906463 318.974815,223.871501 C318.877835,223.032372 318.877835,222.184866 318.974815,221.345737 L341.017823,30.6154364 C341.604323,25.5406678 345.607439,21.5375519 350.682207,20.9510527 Z" fill="#D5D5D5" transform="translate(346.054991, 126.650424) rotate(-45.000000) translate(-346.054991, -126.650424) "></path>
                            <path d="M342.129317,14.5335333 C345.652924,14.1263044 348.839497,16.6526281 349.246726,20.1762354 C349.303349,20.6661737 349.303349,21.1610037 349.246726,21.6509419 L332.576332,165.893924 C332.031515,170.608023 328.312905,174.326634 323.598805,174.87145 C320.075198,175.278679 316.888626,172.752355 316.481397,169.228748 C316.424774,168.73881 316.424774,168.24398 316.481397,167.754041 L333.151791,23.5110595 C333.696607,18.7969599 337.415217,15.0783494 342.129317,14.5335333 Z" fill="#2A3A41" transform="translate(332.864061, 94.702492) rotate(-45.000000) translate(-332.864061, -94.702492) "></path>
                            <path d="M410.246565,25.0581228 C413.437676,24.689321 416.323555,26.9772542 416.692356,30.1683646 C416.743636,30.612071 416.743636,31.0602075 416.692356,31.5039139 L393.739791,230.104288 C393.246385,234.373553 389.878672,237.741265 385.609408,238.234671 C382.418297,238.603473 379.532418,236.31554 379.163616,233.124429 C379.112337,232.680723 379.112337,232.232586 379.163616,231.78888 L402.116182,33.1885059 C402.609588,28.9192411 405.9773,25.5515286 410.246565,25.0581228 Z" fill="#E3E3E3" transform="translate(397.927986, 131.646397) rotate(-45.000000) translate(-397.927986, -131.646397) "></path>
                            <path d="M417.433251,5.18206662 L450.021297,1.41581359 C456.056259,0.718343294 461.513974,5.04523528 462.211444,11.0801973 C462.308423,11.9193257 462.308423,12.7668323 462.211444,13.6059607 L440.168435,204.336262 C439.581936,209.41103 435.57882,213.414146 430.504052,214.000645 L397.916006,217.766898 C391.881044,218.464369 386.423329,214.137477 385.725859,208.102515 C385.628879,207.263386 385.628879,206.41588 385.725859,205.576751 L407.768867,14.8464504 C408.355367,9.77168175 412.358482,5.76856581 417.433251,5.18206662 Z" fill="#D5D5D5" transform="translate(423.968651, 109.591356) rotate(-45.000000) translate(-423.968651, -109.591356) "></path>
                            <path d="M330.042591,30.4584335 C333.233701,30.0896317 336.11958,32.3775649 336.488382,35.5686753 C336.539662,36.0123817 336.539662,36.4605182 336.488382,36.9042246 L313.535817,235.504599 C313.042411,239.773863 309.674698,243.141576 305.405433,243.634982 C302.214323,244.003784 299.328444,241.71585 298.959642,238.52474 C298.908362,238.081034 298.908362,237.632897 298.959642,237.189191 L321.912208,38.5888166 C322.405614,34.3195519 325.773326,30.9518393 330.042591,30.4584335 Z" fill="#D5D5D5" transform="translate(317.724012, 137.046708) rotate(-45.000000) translate(-317.724012, -137.046708) "></path>
                            <path d="M220.53058,9.85389693 C223.736937,9.48333311 226.636604,11.7821975 227.007167,14.9885542 C227.05765,15.4253657 227.058675,15.8664793 227.01022,16.3035205 L201.888161,242.896102 C201.415073,247.163193 198.056476,250.537422 193.791627,251.030317 C190.58527,251.400881 187.685603,249.102017 187.31504,245.89566 C187.264557,245.458849 187.263532,245.017735 187.311987,244.580694 L212.434046,17.9881124 C212.907134,13.7210207 216.265731,10.3467924 220.53058,9.85389693 Z" fill="#D5D5D5" transform="translate(207.161103, 130.442107) rotate(-45.000000) translate(-207.161103, -130.442107) "></path>
                            <path d="M172.966803,14.2725938 L173.85297,14.1701781 C178.049173,13.6852161 181.844007,16.6937715 182.328969,20.8899747 C182.395863,21.468788 182.396398,22.0533496 182.330562,22.6322842 L156.735391,247.705662 C156.157322,252.788965 152.150954,256.802665 147.068717,257.390027 L146.18255,257.492443 C141.986347,257.977405 138.191513,254.96885 137.706551,250.772646 C137.639656,250.193833 137.639122,249.609271 137.704958,249.030337 L163.300128,23.9569586 C163.878198,18.8736558 167.884565,14.8599562 172.966803,14.2725938 Z" fill="#D5D5D5" transform="translate(160.017760, 135.831311) rotate(-45.000000) translate(-160.017760, -135.831311) "></path>
                            <path d="M143.251669,21.7145808 L144.144705,21.6113711 C148.337587,21.126793 152.129418,24.1329673 152.613996,28.3258494 C152.681064,28.9061625 152.681373,29.4922518 152.614919,30.0726354 L128.286218,242.549616 C127.70459,247.629321 123.699592,251.638555 118.620505,252.225553 L117.727469,252.328763 C113.534587,252.813341 109.742756,249.807166 109.258178,245.614284 C109.191111,245.033971 109.190801,244.447882 109.257255,243.867498 L133.585956,31.3905177 C134.167584,26.3108129 138.172582,22.301579 143.251669,21.7145808 Z" fill="#E3E3E3" transform="translate(130.936087, 136.970067) rotate(-45.000000) translate(-130.936087, -136.970067) "></path>
                            <path d="M197.107124,11.1658715 C200.31205,10.795473 203.210424,13.093312 203.580822,16.2982386 C203.63138,16.735699 203.63231,17.1774735 203.583593,17.6151429 L178.31553,244.623357 C177.840541,248.890657 174.481089,252.264277 170.215826,252.75722 C167.010899,253.127619 164.112526,250.82978 163.742127,247.624853 C163.691569,247.187393 163.690639,246.745618 163.739356,246.307949 L189.007419,19.2997348 C189.482408,15.0324346 192.84186,11.6588149 197.107124,11.1658715 Z" fill="#E3E3E3" transform="translate(183.661475, 131.961546) rotate(-45.000000) translate(-183.661475, -131.961546) "></path>
                            <path d="M116.748643,21.1720497 C119.954777,20.8015116 122.854243,23.1002165 123.224781,26.3063508 C123.275276,26.7432633 123.276285,27.1844797 123.22779,27.6216186 L99.0966844,245.141856 C98.6233012,249.40898 95.2645711,252.783113 90.9996575,253.276016 C87.7935232,253.646555 84.8940574,251.34785 84.5235192,248.141715 C84.4730246,247.704803 84.4720151,247.263586 84.5205102,246.826448 L108.651616,29.3062105 C109.124999,25.0390863 112.483729,21.6649527 116.748643,21.1720497 Z" fill="#D5D5D5" transform="translate(103.874150, 137.224033) rotate(-45.000000) translate(-103.874150, -137.224033) "></path>
                            <path d="M103.0796,40.7968317 L103.934213,40.7960913 C109.169869,40.7915557 113.417884,45.0322166 113.42242,50.2678727 C113.422737,50.6343058 113.401809,51.0004491 113.35974,51.3644594 L91.0694048,244.234785 C90.4284457,249.780776 85.7345728,253.967063 80.1516688,253.971899 L79.2970558,253.97264 C74.0613997,253.977175 69.8133849,249.736514 69.8088492,244.500858 C69.8085318,244.134425 69.8294603,243.768282 69.8715296,243.404271 L92.1618643,50.5339459 C92.8028234,44.9879552 97.4966963,40.8016682 103.0796,40.7968317 Z" fill="#C9C9C9" transform="translate(91.615635, 147.384365) rotate(-45.000000) translate(-91.615635, -147.384365) "></path>
                            <path d="M259.339276,-5.44753063 L291.553682,-9.1706015 C297.588644,-9.8680718 303.046359,-5.54117982 303.743829,0.493782234 C303.840808,1.33291064 303.840808,2.18041722 303.743829,3.01954562 L274.41596,256.783147 C273.829461,261.857916 269.826345,265.861031 264.751576,266.447531 L232.53717,270.170602 C226.502208,270.868072 221.044494,266.54118 220.347023,260.506218 C220.250044,259.667089 220.250044,258.819583 220.347023,257.980454 L249.674892,4.2168531 C250.261391,-0.857915502 254.264507,-4.86103144 259.339276,-5.44753063 Z" fill="#E3E3E3" transform="translate(262.045426, 130.500000) rotate(-45.000000) translate(-262.045426, -130.500000) "></path>
                        </g>
                    </g>
                </g>
                <g id="Logo-tarjeta-/-visa" transform="translate(224.641441, 104.960492)" fill="#031D78">
                    <path d="M15.1106958,11.660378 L17.1695281,4.54747351e-13 L20.4655486,4.54747351e-13 L18.4067164,11.660378 L15.1106958,11.660378 Z M29.7208498,0.491713624 L29.2391964,3.01312244 L28.9369825,2.88568662 C28.1569736,2.57175655 27.3170809,2.41977935 26.4720502,2.43966123 C25.1781969,2.43966123 24.5832133,2.91299429 24.5832133,3.44094271 C24.5832133,3.96889113 25.3198597,4.34209605 26.4720502,4.87914702 C28.3797756,5.71658243 29.2391964,6.72696648 29.2391964,8.04683752 C29.2108639,10.4681182 26.9631478,12.033779 23.497132,12.033779 C22.2474714,12.0361805 21.0071145,11.8266618 19.8327882,11.4147842 L20.2955533,8.80234991 L20.7110974,8.98440108 C21.6836867,9.41729381 22.7474559,9.62609131 23.8182342,9.59427249 C24.7626527,9.59427249 25.7920689,9.2392727 25.7920689,8.45645267 C25.8015131,7.92850426 25.338748,7.58260701 24.0826714,7.01824837 C22.8265949,6.45388971 21.1927509,5.5254287 21.1927509,3.85055787 C21.2116393,1.58402069 23.5065761,0.000175443125 26.76482,0.000175443125 C27.7726054,-0.00618141182 28.7735329,0.160256018 29.7208498,0.491713624 Z M38.4472767,0.0131475393 L41.1388693,11.6553204 L38.0789534,11.6553204 C38.0789534,11.6553204 37.7767396,10.3172443 37.6728535,9.91673161 L33.4513028,9.91673161 L32.742989,11.6371152 L29.2769731,11.6371152 L34.1785051,0.987121339 C34.4530156,0.321871193 35.1607438,-0.0791597516 35.8973467,0.0131475393 L38.4472767,0.0131475393 Z M34.3957214,7.53186119 L37.1250907,7.53186119 L36.369556,4.1639144 L36.1428955,3.16263291 C35.9729002,3.59955575 35.7084631,4.27314511 35.7084631,4.27314511 L34.3957214,7.53186119 Z M3.83620518,1.64881107 C2.72629575,1.05340212 1.44485073,0.577502511 0,0.254559428 L0,0.00879033779 L5.5882433,0.00879033779 C6.30526347,-0.0671334609 6.97344756,0.355921462 7.15531681,1.00096926 L8.35772542,6.3532739 C8.3482656,6.33084934 8.33869858,6.30845506 8.32902448,6.28609152 C8.33561701,6.30249849 8.34216205,6.31892837 8.34865944,6.335381 L8.68865009,7.98294417 L11.9185614,4.54747351e-13 L15.4506865,4.54747351e-13 L10.218608,11.6239677 L6.73370382,11.6239677 L3.83620518,1.64881107 Z" id="Combined-Shape"></path>
                    <path d="M22.0490265,15.6096059 L23.6500117,15.6096059 C24.3601959,15.6096059 24.9112988,15.7994644 25.3033369,16.1791872 C25.6953749,16.5589099 25.891391,17.0915401 25.891391,17.7770936 C25.891391,18.4626471 25.6953749,18.9963035 25.3033369,19.3780788 C24.9112988,19.7598541 24.3601959,19.9507389 23.6500117,19.9507389 L22.0490265,19.9507389 L22.0490265,15.6096059 Z M23.6007506,19.3041872 C24.5982926,19.3041872 25.0970561,18.7951611 25.0970561,17.7770936 C25.0970561,16.7631312 24.5982926,16.2561576 23.6007506,16.2561576 L22.8433615,16.2561576 L22.8433615,19.3041872 L23.6007506,19.3041872 Z M29.2657753,18.5837438 L27.2152827,18.5837438 C27.2399133,18.8628914 27.3240668,19.0701964 27.4677457,19.205665 C27.6114246,19.3411337 27.8166771,19.408867 28.0835093,19.408867 C28.4160232,19.408867 28.7197969,19.3021357 28.9948393,19.08867 L29.2165142,19.6182266 C29.0769404,19.7331697 28.9014496,19.8255333 28.6900364,19.8953202 C28.4786232,19.9651071 28.2661869,20 28.0527211,20 C27.5601078,20 27.1711544,19.8604283 26.8858492,19.5812808 C26.600544,19.3021333 26.4578935,18.9203637 26.4578935,18.4359606 C26.4578935,18.1280773 26.5194692,17.8550915 26.6426226,17.6169951 C26.7657759,17.3788986 26.9392142,17.1941714 27.1629428,17.0628079 C27.3866713,16.9314443 27.6401581,16.8657635 27.9234107,16.8657635 C28.3380269,16.8657635 28.6654046,16.9991776 28.9055536,17.2660099 C29.1457026,17.5328421 29.2657753,17.900244 29.2657753,18.3682266 L29.2657753,18.5837438 Z M27.9418837,17.4076355 C27.7366281,17.4076355 27.5713999,17.4733163 27.446194,17.6046798 C27.3209881,17.7360433 27.2440184,17.9248756 27.2152827,18.1711823 L28.6069083,18.1711823 C28.5986981,17.9207705 28.5371223,17.730912 28.4221792,17.601601 C28.3072361,17.47229 28.1471392,17.4076355 27.9418837,17.4076355 Z M28.1697162,16.5455665 L27.6771053,16.5455665 L28.2867112,15.2894089 L29.0687309,15.2894089 L28.1697162,16.5455665 Z M31.6241497,16.8657635 C31.8868768,16.8657635 32.118812,16.9293918 32.3199625,17.0566502 C32.5211129,17.1839087 32.678131,17.3645308 32.7910216,17.5985222 C32.9039121,17.8325135 32.9603566,18.1054993 32.9603566,18.4174877 C32.9603566,18.7294761 32.9039121,19.0055407 32.7910216,19.2456897 C32.678131,19.4858386 32.5200866,19.6715921 32.3168837,19.8029557 C32.1136807,19.9343192 31.8827716,20 31.6241497,20 C31.4065788,20 31.2126152,19.9527919 31.0422531,19.8583744 C30.871891,19.7639568 30.7415557,19.6325953 30.6512433,19.4642857 L30.6512433,19.9507389 L29.8938541,19.9507389 L29.8938541,15.6096059 L30.6635585,15.6096059 L30.6635585,17.3768473 C30.753871,17.2126429 30.88318,17.0864126 31.0514896,16.9981527 C31.2197991,16.9098928 31.4106839,16.8657635 31.6241497,16.8657635 Z M31.4209477,19.4027094 C31.6631492,19.4027094 31.8519815,19.3165033 31.9874502,19.1440887 C32.1229188,18.971674 32.1906521,18.7294761 32.1906521,18.4174877 C32.1906521,18.1096044 32.1239451,17.873564 31.990529,17.7093596 C31.8571129,17.5451552 31.6672543,17.4630542 31.4209477,17.4630542 C31.174641,17.4630542 30.9847825,17.5461814 30.8513664,17.7124384 C30.7179503,17.8786954 30.6512433,18.1178145 30.6512433,18.429803 C30.6512433,18.7417914 30.7179503,18.9819368 30.8513664,19.1502463 C30.9847825,19.3185558 31.174641,19.4027094 31.4209477,19.4027094 Z M33.594593,19.9507389 L33.594593,16.9396552 L34.3642974,16.9396552 L34.3642974,19.9507389 L33.594593,19.9507389 Z M33.5514896,15.5418719 L34.4012433,15.5418719 L34.4012433,16.2992611 L33.5514896,16.2992611 L33.5514896,15.5418719 Z M36.6980413,19.4211823 C36.7883537,19.4211823 36.8827699,19.4150247 36.9812925,19.4027094 L36.9443467,19.9753695 C36.8211934,19.9876848 36.7083045,19.9938424 36.6056768,19.9938424 C36.1828503,19.9938424 35.8708666,19.8963474 35.6697162,19.7013547 C35.4685657,19.5063619 35.367992,19.2159297 35.367992,18.8300493 L35.367992,17.5184729 L34.7891743,17.5184729 L34.7891743,16.9396552 L35.367992,16.9396552 L35.367992,16.0406404 L36.1376965,16.0406404 L36.1376965,16.9396552 L36.9320314,16.9396552 L36.9320314,17.5184729 L36.1376965,17.5184729 L36.1376965,18.817734 C36.1376965,19.2200349 36.3244762,19.4211823 36.6980413,19.4211823 Z M38.8039526,20 C38.4960693,20 38.2261623,19.9363717 37.9942236,19.8091133 C37.7622848,19.6818549 37.5826889,19.4991802 37.4554304,19.2610837 C37.328172,19.0229873 37.2645437,18.7458965 37.2645437,18.429803 C37.2645437,18.1137094 37.328172,17.8376449 37.4554304,17.601601 C37.5826889,17.3655571 37.7622848,17.1839087 37.9942236,17.0566502 C38.2261623,16.9293918 38.4960693,16.8657635 38.8039526,16.8657635 C39.1118359,16.8657635 39.3817429,16.9293918 39.6136817,17.0566502 C39.8456204,17.1839087 40.0241901,17.3655571 40.149396,17.601601 C40.2746018,17.8376449 40.3372038,18.1137094 40.3372038,18.429803 C40.3372038,18.7458965 40.2746018,19.0229873 40.149396,19.2610837 C40.0241901,19.4991802 39.8456204,19.6818549 39.6136817,19.8091133 C39.3817429,19.9363717 39.1118359,20 38.8039526,20 Z M38.797795,19.4027094 C39.0482067,19.4027094 39.2390915,19.3206084 39.3704551,19.1564039 C39.5018186,18.9921995 39.5674994,18.7500016 39.5674994,18.429803 C39.5674994,18.1137094 39.5018186,17.8725378 39.3704551,17.7062808 C39.2390915,17.5400238 39.0502593,17.4568966 38.8039526,17.4568966 C38.557646,17.4568966 38.3677874,17.5400238 38.2343713,17.7062808 C38.1009552,17.8725378 38.0342482,18.1137094 38.0342482,18.429803 C38.0342482,18.7500016 38.099929,18.9921995 38.2312925,19.1564039 C38.3626561,19.3206084 38.5514883,19.4027094 38.797795,19.4027094 Z" id="Débito" fill-rule="nonzero"></path>
                </g>
            </g>
        </g>
    </g>
</svg>