<svg role="img" alt="ícono" aria-label="ícono" focusable="false" xmlns="http://www.w3.org/2000/svg" width="24" height="24" viewBox="0 0 24 24" style="width: 40px; height: 40px;"><g fill="none" fill-rule="evenodd"><path fill="#FF9A00" d="M10.634 12.566l-.145-.296-.063-.144-.09-.228-.043-.123-.067-.21-.077-.286-.047-.221-.046-.272-.03-.25-.02-.289-.005-.123L10 10c0-.11.003-.218.01-.326l.029-.331.034-.239.01-.063c.024-.137.054-.273.088-.407l.051-.187.093-.285.084-.224c.059-.144.123-.285.193-.423l.15-.276.129-.21.118-.176.133-.182.163-.204.19-.215.232-.235.107-.1A5.5 5.5 0 1112 14.243a5.492 5.492 0 002-4.242 5.486 5.486 0 00-1.81-4.079L12 5.758l-.226.197-.216.21-.127.135-.167.192-.135.17-.143.195-.115.172-.129.21c-.086.149-.166.302-.239.46l-.104.24-.084.223a5.457 5.457 0 00-.144.472l-.048.202-.04.205-.033.216-.028.245a5.548 5.548 0 00-.017.25L10 10l.001.124.009.207.02.246.02.161.043.273.074.34.059.214.08.25c.055.155.116.307.183.455l.102.213.105.198.116.197.146.224.176.243.105.133.189.22.172.18.221.21.179.155-.123-.104-.174-.16-.103-.1-.172-.182-.082-.092a5.347 5.347 0 01-.212-.26l-.176-.243-.146-.224-.116-.197a5.797 5.797 0 01-.062-.115z"></path><path fill="red" d="M8.5 4.5c1.26 0 2.42.423 3.347 1.136l.154.122-.01.006A5.489 5.489 0 0010 10c0 1.618.698 3.072 1.81 4.08l.19.163-.153.121A5.5 5.5 0 118.5 4.5z"></path><path fill="#FF5000" d="M12 5.757A5.448 5.448 0 0114.04 10 5.448 5.448 0 0112 14.242 5.445 5.445 0 019.96 10c0-1.664.754-3.155 1.944-4.163l.097-.08z"></path><path fill="#2C3038" fill-rule="nonzero" d="M3.99 19.454v-.816c0-.165.025-.286.073-.363.049-.077.126-.115.232-.115.166 0 .25.14.25.421v.873h.377v-.816c0-.167.024-.29.07-.365.048-.076.124-.113.227-.113.089 0 .153.031.192.095.038.063.057.17.057.322v.877h.377v-.976c0-.432-.183-.648-.55-.648a.57.57 0 00-.478.234.502.502 0 00-.436-.234.46.46 0 00-.205.04.78.78 0 00-.185.15v-.146h-.376v1.58h.376zm3.028.046a.73.73 0 00.499-.211v.165h.377v-1.58h-.377v.183a.714.714 0 00-1.056.01.84.84 0 00-.219.592c0 .241.073.443.219.604a.728.728 0 00.557.237zm.057-.326a.415.415 0 01-.324-.145.54.54 0 01-.125-.37c0-.141.043-.26.128-.357a.42.42 0 01.324-.142.43.43 0 01.334.14.531.531 0 01.128.367c0 .149-.043.27-.128.367a.437.437 0 01-.337.14zm1.762.326a.6.6 0 00.407-.146.491.491 0 00.174-.383.388.388 0 00-.104-.284c-.069-.07-.203-.147-.402-.23-.145-.06-.217-.12-.217-.18a.11.11 0 01.037-.086.127.127 0 01.088-.033c.073 0 .133.049.182.146l.31-.16c-.1-.21-.255-.314-.463-.314a.517.517 0 00-.36.135.445.445 0 00-.146.34c0 .104.028.19.085.255a.705.705 0 00.23.156 10.505 10.505 0 00.229.107c.098.056.147.117.147.182 0 .112-.064.169-.19.169a.236.236 0 01-.164-.062.678.678 0 01-.102-.144l-.32.144c.113.258.306.388.579.388zm1.305-.046v-1.24h.292v-.34h-.292v-.58h-.376v.58h-.16v.34h.16v1.24h.376zm1.305.046c.084 0 .163-.009.235-.026a.714.714 0 00.202-.082.82.82 0 00.175-.143c.055-.058.107-.127.156-.208l-.318-.172a.93.93 0 01-.205.24.392.392 0 01-.232.065.403.403 0 01-.295-.114.473.473 0 01-.13-.31h1.164l.002-.086c0-.26-.069-.464-.207-.612-.139-.148-.328-.222-.567-.222a.747.747 0 00-.57.229c-.143.155-.214.357-.214.607 0 .252.073.454.22.607a.776.776 0 00.584.227zm.367-1.048h-.754a.42.42 0 01.053-.122.374.374 0 01.322-.17c.2 0 .327.097.379.292zm1.171 1.002v-.82c0-.3.103-.45.308-.45.067 0 .137.025.208.074l.172-.334a.619.619 0 00-.31-.094.431.431 0 00-.194.04.714.714 0 00-.184.145v-.141h-.375v1.58h.375zm1.68.046c.153 0 .306-.039.458-.115v-.482a.937.937 0 01-.235.214.488.488 0 01-.239.057.462.462 0 01-.349-.143.51.51 0 01-.135-.365c0-.145.047-.266.14-.362a.47.47 0 01.353-.144c.09 0 .168.019.235.058a.906.906 0 01.23.21v-.486a.964.964 0 00-.454-.112c-.249 0-.46.081-.63.244a.79.79 0 00-.258.597.78.78 0 00.254.592c.17.158.38.237.63.237zm1.521 0a.73.73 0 00.5-.211v.165h.376v-1.58h-.377v.183a.714.714 0 00-1.056.01.84.84 0 00-.219.592c0 .241.073.443.219.604a.728.728 0 00.557.237zm.057-.326a.415.415 0 01-.324-.145.54.54 0 01-.125-.37c0-.141.043-.26.129-.357a.42.42 0 01.323-.142.43.43 0 01.334.14.531.531 0 01.129.367c0 .149-.043.27-.129.367a.437.437 0 01-.337.14zm1.669.28v-.82c0-.3.102-.45.307-.45.068 0 .137.025.208.074l.172-.334a.619.619 0 00-.31-.094.431.431 0 00-.194.04.714.714 0 00-.183.145v-.141h-.376v1.58h.376zm1.575.046a.71.71 0 00.502-.211v.165h.377l.019-2.492h-.377l-.019 1.095a.702.702 0 00-.51-.227c-.22 0-.401.08-.546.239a.838.838 0 00-.219.59c0 .241.073.443.219.604a.724.724 0 00.554.237zm.06-.326a.415.415 0 01-.324-.145.54.54 0 01-.125-.37c0-.141.043-.26.129-.357a.42.42 0 01.323-.142.43.43 0 01.334.14.531.531 0 01.129.367c0 .149-.043.27-.129.367a.437.437 0 01-.337.14z"></path></g></svg>