<?xml version="1.0" encoding="UTF-8"?>
<svg width="281px" height="139px" viewBox="0 0 281 139" version="1.1" xmlns="http://www.w3.org/2000/svg" xmlns:xlink="http://www.w3.org/1999/xlink">
    <title>Tarjetas / credito / visa universal o internacional Copy 6</title>
    <defs>
        <linearGradient x1="85.872886%" y1="38.3769133%" x2="18.933878%" y2="65.033022%" id="linearGradient-1">
            <stop stop-color="#64646B" offset="0%"></stop>
            <stop stop-color="#909093" offset="51.575646%"></stop>
            <stop stop-color="#656469" offset="100%"></stop>
        </linearGradient>
        <filter color-interpolation-filters="auto" id="filter-2">
            <feColorMatrix in="SourceGraphic" type="matrix" values="0 0 0 0 1.000000 0 0 0 0 1.000000 0 0 0 0 1.000000 0 0 0 1.000000 0"></feColorMatrix>
        </filter>
        <linearGradient x1="15.9787427%" y1="63.0247562%" x2="100%" y2="38.3769133%" id="linearGradient-3">
            <stop stop-color="#9E7827" offset="0%"></stop>
            <stop stop-color="#997224" offset="69.1060953%"></stop>
            <stop stop-color="#775319" offset="100%"></stop>
        </linearGradient>
        <rect id="path-4" x="0" y="0" width="280" height="135" rx="8"></rect>
        <linearGradient x1="0%" y1="50%" x2="100%" y2="47.9504147%" id="linearGradient-6">
            <stop stop-color="#835A1E" stop-opacity="0.65" offset="0%"></stop>
            <stop stop-color="#6B4A15" offset="100%"></stop>
        </linearGradient>
        <linearGradient x1="0%" y1="50%" x2="100%" y2="42.1229009%" id="linearGradient-7">
            <stop stop-color="#835A1E" stop-opacity="0.5" offset="0%"></stop>
            <stop stop-color="#7B571D" offset="100%"></stop>
        </linearGradient>
        <linearGradient x1="3.4053349%" y1="49.4466766%" x2="100%" y2="33.7512795%" id="linearGradient-8">
            <stop stop-color="#835A1E" stop-opacity="0" offset="0%"></stop>
            <stop stop-color="#7B571D" offset="100%"></stop>
        </linearGradient>
        <linearGradient x1="0%" y1="50%" x2="100%" y2="18.8136128%" id="linearGradient-9">
            <stop stop-color="#835A1E" stop-opacity="0.5" offset="0%"></stop>
            <stop stop-color="#7B571D" offset="100%"></stop>
        </linearGradient>
        <linearGradient x1="35.9100768%" y1="50%" x2="64.0899232%" y2="0%" id="linearGradient-10">
            <stop stop-color="#835A1E" stop-opacity="0.5" offset="0%"></stop>
            <stop stop-color="#7B571D" offset="100%"></stop>
        </linearGradient>
    </defs>
    <g id="cambio-clave-tarjeta" stroke="none" stroke-width="1" fill="none" fill-rule="evenodd">
        <g id="Artboard" transform="translate(-3331.000000, -433.000000)">
            <g id="Tarjetas-/-credito-/-visa-universal-o-internacional-Copy-6" transform="translate(3331.395676, 433.945313)">
                <g id="Group-3" transform="translate(0.000000, 0.000000)">
                    <g id="Cards-cuentas-/-card-cuentas-+-ver-detalle">
                        <rect id="bg" fill="url(#linearGradient-1)" fill-rule="nonzero" x="0" y="0" width="280" height="135" rx="8"></rect>
                        <g id="Logo-tarjeta-/-visa" transform="translate(222.389474, 57.500000)" filter="url(#filter-2)">
                            <g>
                                <path d="M25.6385826,14.3383096 C26.5557946,14.3323278 27.4667649,14.4889444 28.3289429,14.800844 L28.3289429,14.800844 L27.8905775,17.1734739 L27.6155247,17.0535576 C26.9056181,16.7581514 26.1412097,16.6151418 25.3721251,16.6338505 C24.1945553,16.6338505 23.6530451,17.079254 23.6530451,17.5760501 C23.6530451,18.0728463 24.3234864,18.4240298 25.3721251,18.9293914 C27.1083961,19.7174129 27.8905775,20.668178 27.8905775,21.9101684 C27.8647913,24.1885784 25.819086,25.6618555 22.6645741,25.6618555 C21.5272252,25.6641153 20.3983439,25.4669595 19.3295588,25.0793853 L19.3295588,25.0793853 L19.7507334,22.6211009 L20.128931,22.7924099 C21.01411,23.1997592 21.9822743,23.3962364 22.9568177,23.3662951 C23.8163577,23.3662951 24.7532563,23.0322425 24.7532563,22.2956137 C24.7618517,21.7988175 24.3406771,21.4733304 23.1974889,20.9422724 C22.0543007,20.4112145 20.5672964,19.5375384 20.5672964,17.9614954 C20.5844873,15.8286981 22.6731694,14.3383096 25.6385826,14.3383096 Z M19.9054506,14.3381445 L18.0316534,25.3104874 L15.0318586,25.3104874 L16.9056559,14.3381445 L19.9054506,14.3381445 Z M33.8167138,14.33927 L33.9503347,14.3505162 L36.2710928,14.3505162 L38.7207818,25.3057283 L35.9358721,25.3057283 C35.9358721,25.3057283 35.6608193,24.046607 35.5662699,23.6697271 L35.5662699,23.6697271 L31.724126,23.6697271 L31.079471,25.2885974 L27.924959,25.2885974 L32.3859718,15.2670195 C32.635811,14.6410233 33.279933,14.2636557 33.9503347,14.3505162 Z M15.3412931,14.3381445 L10.5794413,25.2762256 L7.40773858,25.2762256 L4.77232006,15.8905924 C3.76177763,15.3298832 2.59493984,14.8817383 1.27921818,14.5776833 L1.27921818,14.5776833 L1.27921818,14.3464162 L6.36522492,14.3464162 C7.01780379,14.2749723 7.62593565,14.6730644 7.79145962,15.2800503 L7.79145962,15.2800503 L8.88580322,20.3165356 C8.87965156,20.3014585 8.8734501,20.2863959 8.86719887,20.2713481 L8.87755203,20.2996985 L9.18698644,21.8500452 L12.1266134,14.3381445 L15.3412931,14.3381445 Z M34.1738151,17.3141623 C34.0190978,17.725304 33.7784267,18.3591474 33.7784267,18.3591474 L33.7784267,18.3591474 L32.583666,21.4255789 L35.0677367,21.4255789 L34.3801047,18.256362 Z" id="Combined-Shape" fill="#1A1F71"></path>
                            </g>
                        </g>
                    </g>
                    <g id="Cards-cuentas-/-card-cuentas-+-ver-detalle" fill="url(#linearGradient-3)" fill-rule="nonzero">
                        <rect id="bg" x="0" y="0" width="280" height="135" rx="8"></rect>
                    </g>
                </g>
                <g id="trama">
                    <mask id="mask-5" fill="white">
                        <use xlink:href="#path-4"></use>
                    </mask>
                    <g id="bg" fill-rule="nonzero"></g>
                    <g id="Group-6" mask="url(#mask-5)">
                        <g transform="translate(-4.638756, 13.885324)" id="Path-3">
                            <polygon stroke-opacity="0.25" stroke="#7B561A" stroke-width="5" fill="url(#linearGradient-6)" points="284.772727 8.4375 0 57.65625 0 0 284.772727 0"></polygon>
                            <polygon stroke="none" fill="url(#linearGradient-7)" opacity="0.43938555" points="288.75 4.921875 0 119.53125 0 96.3192247"></polygon>
                            <polygon stroke="none" fill="url(#linearGradient-8)" opacity="0.609529768" points="284.772727 11.25 4.77272727 170.868275 4.77272727 147.65625"></polygon>
                            <polygon stroke-opacity="0.5" stroke="#896120" stroke-width="6" fill="url(#linearGradient-9)" opacity="0.922875541" points="284.772727 11.25 136.022727 194.0625 53.2954545 171.5625"></polygon>
                            <polygon stroke-opacity="0.15" stroke="#7A551A" stroke-width="5" fill="url(#linearGradient-10)" opacity="0.922875541" points="284.772727 11.25 238.636364 194.0625 187.727273 184.21875"></polygon>
                        </g>
                    </g>
                </g>
                <g id="Path" transform="translate(227.125000, 102.750000)">
                    <path d="M14.2269373,15.0319188 L13.9567565,14.4811658 L13.9567565,14.4811658 L13.8395644,14.2128173 L13.8395644,14.2128173 L13.6718741,13.786437 L13.6718741,13.786437 L13.5908941,13.5577907 L13.5908941,13.5577907 L13.466412,13.1667591 L13.466412,13.1667591 L13.3238272,12.6326668 L13.3238272,12.6326668 L13.2349066,12.2216637 L13.2349066,12.2216637 L13.1494017,11.7153053 L13.1494017,11.7153053 L13.0936046,11.2499194 L13.0936046,11.2499194 L13.0556215,10.7106623 L13.0556215,10.7106623 L13.0480067,10.4810546 L13.0480067,10.4810546 L13.0454545,10.25 C13.0454545,10.0461413 13.0514058,9.84367261 13.0631441,9.64275816 L13.1178752,9.02520196 L13.1178752,9.02520196 L13.1806539,8.58101679 L13.1806539,8.58101679 L13.2007089,8.46288756 C13.2456838,8.20699689 13.3003104,7.95375399 13.3640971,7.7041766 L13.4598317,7.35553724 L13.4598317,7.35553724 L13.6320796,6.82378407 L13.6320796,6.82378407 L13.789836,6.40794828 L13.789836,6.40794828 C13.8986411,6.13904315 14.0184448,5.87595046 14.1487239,5.61913261 L14.4289345,5.103946 L14.4289345,5.103946 L14.6678297,4.71355232 L14.6678297,4.71355232 L14.8879819,4.38526079 L14.8879819,4.38526079 L15.1356631,4.04576134 L15.1356631,4.04576134 L15.4402183,3.66496553 L15.7943384,3.26454489 L15.7943384,3.26454489 L16.2273447,2.82674447 L16.2273447,2.82674447 L16.4260782,2.64238168 L16.4260782,2.64238168 C18.2439079,1 20.6529,0 23.2954545,0 C28.9563732,0 33.5454545,4.58908131 33.5454545,10.25 C33.5454545,15.9109187 28.9563732,20.5 23.2954545,20.5 C20.8178914,20.5 18.5456357,19.6209747 16.7735473,18.1577842 C19.049625,16.276185 20.5,13.4324691 20.5,10.25 C20.5,7.2350019 19.1982547,4.5240427 17.1261414,2.64849954 L16.7737472,2.34373546 L16.3511236,2.71077811 L16.3511236,2.71077811 L15.9482313,3.10290724 L15.9482313,3.10290724 L15.7115868,3.35442768 L15.4013621,3.71154578 L15.4013621,3.71154578 L15.149303,4.02797154 L14.8825072,4.39310214 L14.8825072,4.39310214 L14.6678297,4.71355232 L14.4289345,5.103946 C14.2672768,5.38187779 14.1183126,5.66810425 13.982836,5.96183137 L13.789836,6.40794828 L13.6320796,6.82378407 C13.5300447,7.11155481 13.4405,7.40523626 13.3640971,7.7041766 L13.2753743,8.08106835 L13.2753743,8.08106835 L13.2007089,8.46288756 L13.138225,8.86504571 L13.0868373,9.32266241 C13.0729818,9.47717142 13.0625548,9.63266811 13.0556331,9.78907586 L13.0454545,10.25 L13.0480052,10.4809556 L13.0480052,10.4809556 L13.063765,10.867776 L13.1011594,11.325073 L13.137003,11.6258767 L13.218147,12.1335782 L13.218147,12.1335782 L13.3573745,12.7693721 L13.3573745,12.7693721 L13.4664229,13.1668245 L13.4664229,13.1668245 L13.6165094,13.6319796 C13.7175496,13.9211715 13.8311845,14.2044527 13.9567565,14.4811658 L14.1466002,14.8768423 L14.3431929,15.245948 L14.5592195,15.6140792 L14.8302413,16.0316188 L15.1579441,16.4838122 L15.1579441,16.4838122 L15.3539444,16.7308729 L15.3539444,16.7308729 L15.7058572,17.1400215 L16.0263948,17.4774843 L16.4397035,17.8699071 L16.4397035,17.8699071 L16.7719072,18.1577842 L16.5444307,17.9641259 L16.5444307,17.9641259 L16.2201429,17.6665256 L16.2201429,17.6665256 L16.0263948,17.4774843 L16.0263948,17.4774843 L15.7058572,17.1400215 L15.7058572,17.1400215 L15.5543206,16.9686723 L15.5543206,16.9686723 C15.4169559,16.8111222 15.2849795,16.6494588 15.1579441,16.4838122 L14.8302413,16.0316188 L14.8302413,16.0316188 L14.5592195,15.6140792 L14.5592195,15.6140792 L14.3431929,15.245948 C14.303843,15.1753805 14.2649741,15.1039034 14.2269373,15.0319188 Z" fill="#FF9A00"></path>
                    <path d="M10.25,0 C12.5972102,0 14.7601485,0.78896163 16.4880899,2.11615986 L16.7737472,2.34373546 L16.7570003,2.35590752 C14.4896092,4.23602578 13.0454545,7.07436269 13.0454545,10.25 C13.0454545,13.2649981 14.3471998,15.9759573 16.4194831,17.8527925 L16.7719072,18.1577842 L16.4880899,18.3838401 C14.7601485,19.7110384 12.5972102,20.5 10.25,20.5 C4.58908131,20.5 0,15.9109187 0,10.25 C0,4.58908131 4.58908131,0 10.25,0 Z" fill="#FF0000"></path>
                    <path d="M16.7738888,2.34307407 C19.094447,4.22310284 20.5733329,7.06679773 20.5733329,10.2492402 C20.5733329,13.4316826 19.094447,16.2753775 16.7738888,18.1554063 C14.4513156,16.2759699 12.9721216,13.4320141 12.9721216,10.2492402 C12.9721216,7.14921329 14.3754021,4.37061608 16.5929841,2.49106311 L16.7738888,2.34307407 Z" fill="#FF5000"></path>
                </g>
            </g>
        </g>
    </g>
</svg>