<?xml version="1.0" encoding="UTF-8"?>
<svg width="281px" height="138px" viewBox="0 0 281 138" version="1.1" xmlns="http://www.w3.org/2000/svg" xmlns:xlink="http://www.w3.org/1999/xlink">
    <title>Tarjetas / credito / visa smart Copy 3</title>
    <defs>
        <linearGradient x1="85.872886%" y1="38.3769133%" x2="18.933878%" y2="65.033022%" id="linearGradient-1">
            <stop stop-color="#64646B" offset="0%"></stop>
            <stop stop-color="#909093" offset="51.575646%"></stop>
            <stop stop-color="#656469" offset="100%"></stop>
        </linearGradient>
        <filter color-interpolation-filters="auto" id="filter-2">
            <feColorMatrix in="SourceGraphic" type="matrix" values="0 0 0 0 1.000000 0 0 0 0 1.000000 0 0 0 0 1.000000 0 0 0 1.000000 0"></feColorMatrix>
        </filter>
    </defs>
    <g id="cambio-clave-tarjeta" stroke="none" stroke-width="1" fill="none" fill-rule="evenodd">
        <g id="Artboard" transform="translate(-3331.000000, -609.000000)">
            <g id="Tarjetas-/-credito-/-visa-smart-Copy-3" transform="translate(3331.207584, 609.404659)">
                <g id="Group-3">
                    <g id="Cards-cuentas-/-card-cuentas-+-ver-detalle">
                        <rect id="bg" fill="url(#linearGradient-1)" fill-rule="nonzero" x="0" y="0" width="280" height="135" rx="8"></rect>
                        <g id="Logo-tarjeta-/-visa" transform="translate(222.389474, 57.500000)" filter="url(#filter-2)">
                            <g>
                                <path d="M25.6385826,14.3383096 C26.5557946,14.3323278 27.4667649,14.4889444 28.3289429,14.800844 L28.3289429,14.800844 L27.8905775,17.1734739 L27.6155247,17.0535576 C26.9056181,16.7581514 26.1412097,16.6151418 25.3721251,16.6338505 C24.1945553,16.6338505 23.6530451,17.079254 23.6530451,17.5760501 C23.6530451,18.0728463 24.3234864,18.4240298 25.3721251,18.9293914 C27.1083961,19.7174129 27.8905775,20.668178 27.8905775,21.9101684 C27.8647913,24.1885784 25.819086,25.6618555 22.6645741,25.6618555 C21.5272252,25.6641153 20.3983439,25.4669595 19.3295588,25.0793853 L19.3295588,25.0793853 L19.7507334,22.6211009 L20.128931,22.7924099 C21.01411,23.1997592 21.9822743,23.3962364 22.9568177,23.3662951 C23.8163577,23.3662951 24.7532563,23.0322425 24.7532563,22.2956137 C24.7618517,21.7988175 24.3406771,21.4733304 23.1974889,20.9422724 C22.0543007,20.4112145 20.5672964,19.5375384 20.5672964,17.9614954 C20.5844873,15.8286981 22.6731694,14.3383096 25.6385826,14.3383096 Z M19.9054506,14.3381445 L18.0316534,25.3104874 L15.0318586,25.3104874 L16.9056559,14.3381445 L19.9054506,14.3381445 Z M33.8167138,14.33927 L33.9503347,14.3505162 L36.2710928,14.3505162 L38.7207818,25.3057283 L35.9358721,25.3057283 C35.9358721,25.3057283 35.6608193,24.046607 35.5662699,23.6697271 L35.5662699,23.6697271 L31.724126,23.6697271 L31.079471,25.2885974 L27.924959,25.2885974 L32.3859718,15.2670195 C32.635811,14.6410233 33.279933,14.2636557 33.9503347,14.3505162 Z M15.3412931,14.3381445 L10.5794413,25.2762256 L7.40773858,25.2762256 L4.77232006,15.8905924 C3.76177763,15.3298832 2.59493984,14.8817383 1.27921818,14.5776833 L1.27921818,14.5776833 L1.27921818,14.3464162 L6.36522492,14.3464162 C7.01780379,14.2749723 7.62593565,14.6730644 7.79145962,15.2800503 L7.79145962,15.2800503 L8.88580322,20.3165356 C8.87965156,20.3014585 8.8734501,20.2863959 8.86719887,20.2713481 L8.87755203,20.2996985 L9.18698644,21.8500452 L12.1266134,14.3381445 L15.3412931,14.3381445 Z M34.1738151,17.3141623 C34.0190978,17.725304 33.7784267,18.3591474 33.7784267,18.3591474 L33.7784267,18.3591474 L32.583666,21.4255789 L35.0677367,21.4255789 L34.3801047,18.256362 Z" id="Combined-Shape" fill="#1A1F71"></path>
                            </g>
                        </g>
                    </g>
                    <g id="Cards-cuentas-/-card-cuentas-+-ver-detalle" fill="#000000" fill-rule="nonzero">
                        <rect id="bg" x="0" y="0" width="280" height="135" rx="8"></rect>
                    </g>
                </g>
                <g id="logo-mastercar-gris" transform="translate(227.125000, 97.437500)">
                    <g id="icon">
                        <path d="M14.2084392,15.1908146 L13.9386098,14.6342399 L13.9386098,14.6342399 L13.82157,14.3630548 L13.82157,14.3630548 L13.6540977,13.9321674 L13.6540977,13.9321674 L13.573223,13.7011042 L13.573223,13.7011042 L13.4489027,13.3059391 L13.4489027,13.3059391 L13.3065033,12.7662012 L13.3065033,12.7662012 L13.2176984,12.3508536 L13.2176984,12.3508536 L13.1323047,11.8391427 L13.1323047,11.8391427 L13.0765801,11.3688374 L13.0765801,11.3688374 L13.0386464,10.82388 L13.0386464,10.82388 L13.0310414,10.5918453 L13.0310414,10.5918453 L13.0284926,10.3583483 C13.0284926,10.1523347 13.0344362,9.94772577 13.0461592,9.74468755 L13.1008191,9.12060343 L13.1008191,9.12060343 L13.1635162,8.67172297 L13.1635162,8.67172297 L13.1835451,8.55234505 C13.2284616,8.29374947 13.2830172,8.03782965 13.3467209,7.78561409 L13.442331,7.43328941 L13.442331,7.43328941 L13.6143549,6.89591532 L13.6143549,6.89591532 L13.7719062,6.4756839 L13.7719062,6.4756839 C13.8805699,6.20393629 14.0002179,5.93806257 14.1303275,5.67853001 L14.4101738,5.15789758 L14.4101738,5.15789758 L14.6487584,4.76337722 L14.6487584,4.76337722 L14.8686243,4.43161546 L14.8686243,4.43161546 L15.1159835,4.08852732 L15.1159835,4.08852732 L15.4201427,3.70370628 L15.7738023,3.29905297 L15.7738023,3.29905297 L16.2062457,2.85662476 L16.2062457,2.85662476 L16.4047208,2.67031315 L16.4047208,2.67031315 C18.2201869,1.01057017 20.6260468,0 23.2651654,0 C28.9187237,0 33.5018382,4.63759049 33.5018382,10.3583483 C33.5018382,16.0791061 28.9187237,20.7166966 23.2651654,20.7166966 C20.7908237,20.7166966 18.5215224,19.8283795 16.7517381,18.3497222 C19.0248564,16.4482334 20.4733456,13.5744579 20.4733456,10.3583483 C20.4733456,7.31147995 19.1732929,4.57186438 17.1038737,2.67649567 L16.7519377,2.36851006 L16.3298636,2.73943256 L16.3298636,2.73943256 L15.9274951,3.13570672 L15.9274951,3.13570672 L15.6911583,3.38988587 L15.381337,3.75077891 L15.381337,3.75077891 L15.1296056,4.07054947 L14.8631568,4.43953971 L14.8631568,4.43953971 L14.6487584,4.76337722 L14.4101738,5.15789758 C14.2487262,5.43876727 14.0999557,5.72801931 13.9646553,6.02485129 L13.7719062,6.4756839 L13.6143549,6.89591532 C13.5124527,7.18672796 13.4230244,7.48351378 13.3467209,7.78561409 L13.2581135,8.1664898 L13.2581135,8.1664898 L13.1835451,8.55234505 L13.1211424,8.95875424 L13.0698216,9.4212082 C13.0559841,9.57735046 13.0455707,9.73449084 13.0386579,9.89255191 L13.0284926,10.3583483 L13.03104,10.5917452 L13.03104,10.5917452 L13.0467793,10.9826545 L13.0841251,11.4447854 L13.119922,11.7487687 L13.2009606,12.261837 L13.2009606,12.261837 L13.3400071,12.9043515 L13.3400071,12.9043515 L13.4489137,13.3060053 L13.4489137,13.3060053 L13.598805,13.7760773 C13.6997139,14.0683261 13.813201,14.3546018 13.9386098,14.6342399 L14.1282066,15.0340989 L14.3245437,15.4071062 L14.5402894,15.7791288 L14.8109588,16.201082 L15.1382355,16.6580554 L15.1382355,16.6580554 L15.333981,16.9077276 L15.333981,16.9077276 L15.6854362,17.3212012 L16.005557,17.6622312 L16.4183284,18.0588021 L16.4183284,18.0588021 L16.7501001,18.3497222 L16.5229194,18.1540168 L16.5229194,18.1540168 L16.1990532,17.8532707 L16.1990532,17.8532707 L16.005557,17.6622312 L16.005557,17.6622312 L15.6854362,17.3212012 L15.6854362,17.3212012 L15.5340966,17.1480407 L15.5340966,17.1480407 C15.3969105,16.9888252 15.2651057,16.825453 15.1382355,16.6580554 L14.8109588,16.201082 L14.8109588,16.201082 L14.5402894,15.7791288 L14.5402894,15.7791288 L14.3245437,15.4071062 C14.2852449,15.3357928 14.2464266,15.2635601 14.2084392,15.1908146 Z" id="Path" fill="#C0C0BF"></path>
                        <path d="M10.2366728,0 C12.5808311,0 14.7409571,0.797301399 16.4666519,2.13852887 L16.7519377,2.36851006 L16.7352126,2.38081079 C14.4707696,4.28080295 13.0284926,7.14914269 13.0284926,10.3583483 C13.0284926,13.4052166 14.3285454,16.1448322 16.3981343,18.0415066 L16.7501001,18.3497222 L16.4666519,18.5781677 C14.7409571,19.9193952 12.5808311,20.7166966 10.2366728,20.7166966 C4.58311452,20.7166966 0,16.0791061 0,10.3583483 C0,4.63759049 4.58311452,0 10.2366728,0 Z" id="Path" fill="#626261"></path>
                        <path d="M16.7520791,2.36784168 C19.0696201,4.26774342 20.5465831,7.14149777 20.5465831,10.3575804 C20.5465831,13.5736631 19.0696201,16.4474175 16.7520791,18.3473192 C14.4325258,16.448016 12.9552551,13.5739981 12.9552551,10.3575804 C12.9552551,7.2247845 14.356711,4.41681595 16.5714097,2.51739505 L16.7520791,2.36784168 Z" id="Path" fill="#959392"></path>
                    </g>
                    <path d="M1.84412522,28.1639621 L1.84412522,26.6269139 C1.84412522,26.3152261 1.88916127,26.0870626 1.97923338,25.9424232 C2.06930548,25.7977838 2.21269612,25.7254641 2.40940531,25.7254641 C2.71999876,25.7254641 2.87529549,25.9902968 2.87529549,26.5199622 L2.87529549,26.5199622 L2.87529549,28.1639621 L3.57723669,28.1639621 L3.57723669,26.6269139 C3.57723669,26.3111518 3.62123743,26.0819696 3.70923891,25.9393674 C3.79724039,25.7967652 3.9375251,25.7254641 4.13009304,25.7254641 C4.29574288,25.7254641 4.41480371,25.7855607 4.48727551,25.905754 C4.55767669,26.0239102 4.59287729,26.2255905 4.59287729,26.5107949 L4.59287729,26.5107949 L4.59287729,28.1639621 L5.29481849,28.1639621 L5.29481849,26.3243934 C5.29481849,25.5115607 4.954201,25.1051444 4.27296603,25.1051444 C3.89818326,25.1051444 3.60104886,25.251821 3.38156282,25.5451741 C3.18278301,25.251821 2.9125667,25.1051444 2.5709139,25.1051444 C2.4176878,25.1051444 2.29034448,25.1306091 2.18888396,25.1815384 C2.0936353,25.2304306 1.97871572,25.3241407 1.84412522,25.4626685 L1.84412522,25.4626685 L1.84412522,25.18765 L1.14528995,25.18765 L1.14528995,28.1639621 L1.84412522,28.1639621 Z M7.47829047,28.2495235 C7.80959015,28.2495235 8.11914829,28.1171071 8.40696489,27.8522744 L8.40696489,27.8522744 L8.40696489,28.1639621 L9.1089061,28.1639621 L9.1089061,25.18765 L8.40696489,25.18765 L8.40696489,25.5329511 C8.12743079,25.2477466 7.81166078,25.1051444 7.45965486,25.1051444 C7.05174213,25.1051444 6.71215995,25.2538581 6.44090833,25.5512856 C6.16965672,25.8487131 6.03403091,26.2204975 6.03403091,26.6666388 C6.03403091,27.1209287 6.16965672,27.4998432 6.44090833,27.8033822 C6.71423057,28.1008097 7.06002462,28.2495235 7.47829047,28.2495235 Z M7.58389224,27.6353153 C7.34162935,27.6353153 7.14077892,27.544661 6.98134094,27.3633525 C6.82604422,27.1840811 6.74839585,26.9518432 6.74839585,26.6666388 C6.74839585,26.3997689 6.82811484,26.1756797 6.98755281,25.9943711 C7.14906141,25.8150998 7.34991184,25.7254641 7.59010411,25.7254641 C7.84479074,25.7254641 8.05185305,25.8140812 8.21129102,25.9913154 C8.37072899,26.1726239 8.45044798,26.4028246 8.45044798,26.6819176 C8.45044798,26.9610105 8.37072899,27.1912112 8.21129102,27.3725198 C8.05185305,27.5477168 7.84272012,27.6353153 7.58389224,27.6353153 Z M10.8637591,28.2495235 C11.1598582,28.2495235 11.4124742,28.1578506 11.6216071,27.9745049 C11.8369519,27.7809733 11.9446243,27.5405867 11.9446243,27.2533451 C11.9446243,27.0292559 11.880435,26.8510031 11.7520564,26.7185867 C11.6236778,26.5861704 11.3741677,26.441531 11.0035262,26.2846685 C10.7343452,26.1726239 10.5997547,26.0595607 10.5997547,25.9454789 C10.5997547,25.8802893 10.6225315,25.8268135 10.6680852,25.7850514 C10.7136389,25.7432894 10.7685105,25.7224083 10.8326998,25.7224083 C10.9672903,25.7224083 11.0801392,25.8140812 11.1712466,25.9974269 L11.1712466,25.9974269 L11.7489505,25.6949065 C11.5605238,25.3017317 11.2727072,25.1051444 10.8855007,25.1051444 C10.6225315,25.1051444 10.3989042,25.1896871 10.2146188,25.3587726 C10.0344746,25.5278581 9.94440249,25.7417615 9.94440249,26.0004827 C9.94440249,26.1960514 9.99720338,26.3559696 10.1028052,26.4802373 C10.1856301,26.5780217 10.3285031,26.6758061 10.5314241,26.7735904 C10.6038959,26.8082224 10.6753324,26.8418358 10.7457336,26.8744306 C10.8161348,26.9070254 10.886536,26.9406388 10.9569371,26.9752707 C11.139152,27.0812038 11.2302594,27.1952856 11.2302594,27.3175161 C11.2302594,27.5293822 11.1122339,27.6353153 10.8761828,27.6353153 C10.7581573,27.6353153 10.6566968,27.596609 10.5718013,27.5191964 C10.5283182,27.48049 10.4651642,27.3898358 10.3823393,27.2472335 L10.3823393,27.2472335 L9.78599983,27.5191964 C9.99720338,28.0060811 10.3564565,28.2495235 10.8637591,28.2495235 Z M13.2925999,28.1639621 L13.2925999,25.82936 L13.8361385,25.82936 L13.8361385,25.18765 L13.2925999,25.18765 L13.2925999,24.0967429 L12.5937646,24.0967429 L12.5937646,25.18765 L12.2955949,25.18765 L12.2955949,25.82936 L12.5937646,25.82936 L12.5937646,28.1639621 L13.2925999,28.1639621 Z M15.7214407,28.2495235 C15.8788081,28.2495235 16.024787,28.2332261 16.1593775,28.2006313 C16.293968,28.1680365 16.4192407,28.1165978 16.5351956,28.0463153 C16.6511505,27.9760328 16.7598582,27.8863971 16.8613187,27.7774083 C16.9627792,27.6684194 17.0590632,27.5375309 17.1501706,27.3847428 L17.1501706,27.3847428 L16.560043,27.0608321 C16.4171701,27.2808469 16.2898267,27.4315979 16.1780131,27.5130848 C16.0641288,27.5945718 15.9202205,27.6353153 15.7462882,27.6353153 C15.5226609,27.6353153 15.3394108,27.5640142 15.1965378,27.421412 C15.0536648,27.2767726 14.9729105,27.0822224 14.9542749,26.8377614 L14.9542749,26.8377614 L17.1222172,26.8377614 L17.1253231,26.6758061 C17.1253231,26.184847 16.9969445,25.8008395 16.7401873,25.5237838 C16.4813594,25.2446909 16.1293535,25.1051444 15.6841695,25.1051444 C15.2431268,25.1051444 14.8890503,25.2487652 14.6219399,25.5360068 C14.3569002,25.8273228 14.2243803,26.2082745 14.2243803,26.6788618 C14.2243803,27.1535235 14.3610414,27.5344752 14.6343636,27.8217168 C14.9076859,28.1069213 15.2700449,28.2495235 15.7214407,28.2495235 Z M16.4047463,26.2755012 L15.0008639,26.2755012 C15.0236408,26.1899399 15.0567707,26.1135458 15.1002538,26.0463191 C15.1437369,25.9790923 15.1960201,25.9215421 15.2571035,25.8736685 C15.3181869,25.8257949 15.3859998,25.7891258 15.4605422,25.7636611 C15.5350847,25.7381964 15.6148036,25.7254641 15.6996992,25.7254641 C16.0724113,25.7254641 16.307427,25.9088098 16.4047463,26.2755012 L16.4047463,26.2755012 Z M18.5851124,28.1639621 L18.5851124,26.6208023 C18.5851124,26.0544678 18.7756097,25.7713005 19.1566043,25.7713005 C19.2829123,25.7713005 19.4123263,25.8181555 19.5448461,25.9118656 L19.5448461,25.9118656 L19.8647574,25.2823786 C19.663907,25.1642225 19.471339,25.1051444 19.2870536,25.1051444 C19.1483218,25.1051444 19.0282257,25.1306091 18.9267652,25.1815384 C18.8273753,25.2304306 18.713491,25.3210849 18.5851124,25.4535013 L18.5851124,25.4535013 L18.5851124,25.18765 L17.8862771,25.18765 L17.8862771,28.1639621 L18.5851124,28.1639621 Z M21.7127884,28.2495235 C21.9964638,28.2495235 22.2801391,28.1772038 22.5638145,28.0325644 L22.5638145,28.0325644 L22.5638145,27.1250031 C22.396094,27.3246462 22.2501151,27.4590997 22.1258777,27.5283636 C21.9974991,27.5996648 21.8494496,27.6353153 21.6817291,27.6353153 C21.41876,27.6353153 21.2023799,27.5456796 21.0325888,27.3664083 C20.8648683,27.1871369 20.7810081,26.9579547 20.7810081,26.6788618 C20.7810081,26.4058804 20.8679742,26.1787354 21.0419066,25.9974269 C21.2158389,25.8161183 21.4342896,25.7254641 21.6972588,25.7254641 C21.8649792,25.7254641 22.0109582,25.7621332 22.1351955,25.8354715 C22.2615035,25.9067726 22.4043765,26.0381704 22.5638145,26.2296648 L22.5638145,26.2296648 L22.5638145,25.315992 C22.2987748,25.1754269 22.01717,25.1051444 21.7190003,25.1051444 C21.2551808,25.1051444 20.863833,25.2579325 20.5449571,25.5635087 C20.2260811,25.8690849 20.0666431,26.243925 20.0666431,26.6880291 C20.0666431,27.1321332 20.2240105,27.5039176 20.5387452,27.8033822 C20.8534799,28.1008097 21.2448276,28.2495235 21.7127884,28.2495235 Z M24.5422948,28.2495235 C24.8735945,28.2495235 25.1831526,28.1171071 25.4709692,27.8522744 L25.4709692,27.8522744 L25.4709692,28.1639621 L26.1729104,28.1639621 L26.1729104,25.18765 L25.4709692,25.18765 L25.4709692,25.5329511 C25.1914351,25.2477466 24.8756651,25.1051444 24.5236592,25.1051444 C24.1157465,25.1051444 23.7761643,25.2538581 23.5049127,25.5512856 C23.233661,25.8487131 23.0980352,26.2204975 23.0980352,26.6666388 C23.0980352,27.1209287 23.233661,27.4998432 23.5049127,27.8033822 C23.7782349,28.1008097 24.1240289,28.2495235 24.5422948,28.2495235 Z M24.6478966,27.6353153 C24.4056337,27.6353153 24.2047832,27.544661 24.0453453,27.3633525 C23.8900485,27.1840811 23.8124002,26.9518432 23.8124002,26.6666388 C23.8124002,26.3997689 23.8921192,26.1756797 24.0515571,25.9943711 C24.2130657,25.8150998 24.4139162,25.7254641 24.6541084,25.7254641 C24.9087951,25.7254641 25.1158574,25.8140812 25.2752954,25.9913154 C25.4347333,26.1726239 25.5144523,26.4028246 25.5144523,26.6819176 C25.5144523,26.9610105 25.4347333,27.1912112 25.2752954,27.3725198 C25.1158574,27.5477168 24.9067245,27.6353153 24.6478966,27.6353153 Z M27.7538311,28.1639621 L27.7538311,26.6208023 C27.7538311,26.0544678 27.9443284,25.7713005 28.3253231,25.7713005 C28.4516311,25.7713005 28.581045,25.8181555 28.7135649,25.9118656 L28.7135649,25.9118656 L29.0334761,25.2823786 C28.8326257,25.1642225 28.6400578,25.1051444 28.4557723,25.1051444 C28.3170406,25.1051444 28.1969444,25.1306091 28.0954839,25.1815384 C27.996094,25.2304306 27.8822097,25.3210849 27.7538311,25.4535013 L27.7538311,25.4535013 L27.7538311,25.18765 L27.0549958,25.18765 L27.0549958,28.1639621 L27.7538311,28.1639621 Z M30.6858333,28.2495235 C31.033698,28.2495235 31.3453267,28.1171071 31.6207196,27.8522744 L31.6207196,28.1639621 L32.3226608,28.1639621 L32.3565483,23.4703117 L31.6546071,23.4703117 L31.6207196,25.5329511 C31.3411855,25.2477466 31.0243802,25.1051444 30.6703036,25.1051444 C30.2623909,25.1051444 29.923844,25.2548767 29.654663,25.5543414 C29.3834114,25.8517689 29.2477856,26.2225347 29.2477856,26.6666388 C29.2477856,27.1209287 29.3834114,27.4998432 29.654663,27.8033822 C29.9279853,28.1008097 30.2717087,28.2495235 30.6858333,28.2495235 Z M30.797647,27.6353153 C30.5553841,27.6353153 30.3545336,27.544661 30.1950957,27.3633525 C30.0397989,27.1840811 29.9621506,26.9518432 29.9621506,26.6666388 C29.9621506,26.3997689 30.0418695,26.1756797 30.2013075,25.9943711 C30.3628161,25.8150998 30.5636666,25.7254641 30.8038588,25.7254641 C31.0585455,25.7254641 31.2656078,25.8140812 31.4250457,25.9913154 C31.5844837,26.1726239 31.6642027,26.4028246 31.6642027,26.6819176 C31.6642027,26.9610105 31.5844837,27.1912112 31.4250457,27.3725198 C31.2656078,27.5477168 31.0564748,27.6353153 30.797647,27.6353153 Z" id="mastercard" fill="#C0C0BF" fill-rule="nonzero"></path>
                </g>
            </g>
        </g>
    </g>
</svg>