<?xml version="1.0" encoding="UTF-8"?>
<svg width="281px" height="139px" viewBox="0 0 281 139" version="1.1" xmlns="http://www.w3.org/2000/svg" xmlns:xlink="http://www.w3.org/1999/xlink">
    <title>Tarjetas / credito / visa platinum Copy</title>
    <defs>
        <linearGradient x1="85.872886%" y1="38.3769133%" x2="18.933878%" y2="65.033022%" id="linearGradient-1">
            <stop stop-color="#64646B" offset="0%"></stop>
            <stop stop-color="#909093" offset="51.575646%"></stop>
            <stop stop-color="#656469" offset="100%"></stop>
        </linearGradient>
        <filter color-interpolation-filters="auto" id="filter-2">
            <feColorMatrix in="SourceGraphic" type="matrix" values="0 0 0 0 1.000000 0 0 0 0 1.000000 0 0 0 0 1.000000 0 0 0 1.000000 0"></feColorMatrix>
        </filter>
        <radialGradient cx="50%" cy="50%" fx="50%" fy="50%" r="110.289766%" gradientTransform="translate(0.500000,0.500000),scale(0.482143,1.000000),rotate(-26.958899),translate(-0.500000,-0.500000)" id="radialGradient-3">
            <stop stop-color="#FEFEFE" offset="0%"></stop>
            <stop stop-color="#BCBDBF" offset="100%"></stop>
        </radialGradient>
        <filter color-interpolation-filters="auto" id="filter-4">
            <feColorMatrix in="SourceGraphic" type="matrix" values="0 0 0 0 0.011765 0 0 0 0 0.113725 0 0 0 0 0.470588 0 0 0 1.000000 0"></feColorMatrix>
        </filter>
    </defs>
    <g id="cambio-clave-tarjeta" stroke="none" stroke-width="1" fill="none" fill-rule="evenodd">
        <g id="Artboard" transform="translate(-3331.000000, -1325.000000)">
            <g id="Tarjetas-/-credito-/-visa-platinum-Copy" transform="translate(3331.395676, 1325.168692)">
                <g id="Group-3">
                    <g id="Cards-cuentas-/-card-cuentas-+-ver-detalle">
                        <rect id="bg" fill="url(#linearGradient-1)" fill-rule="nonzero" x="0" y="0" width="280" height="135" rx="8"></rect>
                        <g id="Logo-tarjeta-/-visa" transform="translate(222.389474, 58.500000)" filter="url(#filter-2)">
                            <g>
                                <path d="M25.6385826,14.3383096 C26.5557946,14.3323278 27.4667649,14.4889444 28.3289429,14.800844 L28.3289429,14.800844 L27.8905775,17.1734739 L27.6155247,17.0535576 C26.9056181,16.7581514 26.1412097,16.6151418 25.3721251,16.6338505 C24.1945553,16.6338505 23.6530451,17.079254 23.6530451,17.5760501 C23.6530451,18.0728463 24.3234864,18.4240298 25.3721251,18.9293914 C27.1083961,19.7174129 27.8905775,20.668178 27.8905775,21.9101684 C27.8647913,24.1885784 25.819086,25.6618555 22.6645741,25.6618555 C21.5272252,25.6641153 20.3983439,25.4669595 19.3295588,25.0793853 L19.3295588,25.0793853 L19.7507334,22.6211009 L20.128931,22.7924099 C21.01411,23.1997592 21.9822743,23.3962364 22.9568177,23.3662951 C23.8163577,23.3662951 24.7532563,23.0322425 24.7532563,22.2956137 C24.7618517,21.7988175 24.3406771,21.4733304 23.1974889,20.9422724 C22.0543007,20.4112145 20.5672964,19.5375384 20.5672964,17.9614954 C20.5844873,15.8286981 22.6731694,14.3383096 25.6385826,14.3383096 Z M19.9054506,14.3381445 L18.0316534,25.3104874 L15.0318586,25.3104874 L16.9056559,14.3381445 L19.9054506,14.3381445 Z M33.8167138,14.33927 L33.9503347,14.3505162 L36.2710928,14.3505162 L38.7207818,25.3057283 L35.9358721,25.3057283 C35.9358721,25.3057283 35.6608193,24.046607 35.5662699,23.6697271 L35.5662699,23.6697271 L31.724126,23.6697271 L31.079471,25.2885974 L27.924959,25.2885974 L32.3859718,15.2670195 C32.635811,14.6410233 33.279933,14.2636557 33.9503347,14.3505162 Z M15.3412931,14.3381445 L10.5794413,25.2762256 L7.40773858,25.2762256 L4.77232006,15.8905924 C3.76177763,15.3298832 2.59493984,14.8817383 1.27921818,14.5776833 L1.27921818,14.5776833 L1.27921818,14.3464162 L6.36522492,14.3464162 C7.01780379,14.2749723 7.62593565,14.6730644 7.79145962,15.2800503 L7.79145962,15.2800503 L8.88580322,20.3165356 C8.87965156,20.3014585 8.8734501,20.2863959 8.86719887,20.2713481 L8.87755203,20.2996985 L9.18698644,21.8500452 L12.1266134,14.3381445 L15.3412931,14.3381445 Z M34.1738151,17.3141623 C34.0190978,17.725304 33.7784267,18.3591474 33.7784267,18.3591474 L33.7784267,18.3591474 L32.583666,21.4255789 L35.0677367,21.4255789 L34.3801047,18.256362 Z" id="Combined-Shape" fill="#1A1F71"></path>
                            </g>
                        </g>
                    </g>
                    <g id="Cards-cuentas-/-card-cuentas-+-ver-detalle">
                        <rect id="bg" fill="url(#radialGradient-3)" fill-rule="nonzero" x="0" y="0" width="280" height="135" rx="8"></rect>
                        <g id="Group-10" opacity="0.514094035" transform="translate(72.900462, 27.507812)">
                            <g id="Group-9" transform="translate(0.000000, 1.608681)">
                                <path d="M0.855726906,65.9477292 C-1.46696041,72.0862599 0.938680024,76.8145877 8.07264821,80.1327124 C15.0568332,83.3811706 29.2303019,80.0712657 31.714287,78.8884156 C42.1663799,73.9112285 53.8627696,59.4773859 61.3285502,46.2878401 C66.8034561,37.9925282 72.8590337,29.9460758 79.4952832,22.1484826 C93.5973133,7.38282754 105.542562,0 115.33103,0 C130.013732,0 137.230654,11.6963897 133.000045,27.1256697" id="Path-4" stroke="#BCBDBF" stroke-width="1.5"></path>
                                <ellipse id="Oval" fill="#BCBDBF" cx="4.09089853" cy="66.9262441" rx="3.73289033" ry="4.10617936"></ellipse>
                                <path d="M12.0543979,81.6258685 C35.6130835,83.6167434 53.1991446,74.4089472 64.8125812,54.0024801 C82.2327361,23.3927794 73.771518,28.3699665 96.6665787,7.46578066 L95.9200006,6.96806195 C85.633814,15.42928 78.2509864,22.8121076 73.771518,29.1165446 C69.2920496,35.4209816 62.8217064,44.7117308 54.3604883,56.9887924 C47.6587824,66.5847492 41.1884392,73.2209986 34.9494586,76.8975408 C28.710478,80.5740829 21.2446973,82.1501922 12.5521166,81.6258685 L12.0543979,81.6258685 Z" id="Path-6" fill="#BCBDBF"></path>
                            </g>
                            <path d="M74.5180961,40.9284596 C86.9610638,46.4033654 95.9200006,45.0761155 101.394906,36.9467099 C109.607265,24.7526015 102.141485,12.0607744 96.6665787,9.07446214 C91.1916729,6.08814987 69.7897683,-8.84341145 35.4471773,7.581306 C12.5521166,18.5311176 2.68069551,33.462679 5.83291401,52.37599 C11.8055385,65.3166764 22.2576315,67.80527 37.1891928,59.8417706 C52.1207541,51.8782713 60.3331128,41.177319 61.826269,27.7389138 C60.8308315,17.6186333 52.9502853,15.8766178 38.1846302,22.5128673 C28.0504557,27.0675525 23.999647,33.2138196 21.5110534,40.1818816 C18.8719333,47.5714179 21.8351295,54.3246146 27.2348186,54.8645835" id="Path-5" stroke="#BCBDBF" stroke-width="1.5"></path>
                            <path d="M76.0112522,41.4261783 C82.149783,44.0806781 87.6246888,44.7443031 92.4359697,43.4170532 C100.437466,41.2097439 106.17031,31.3064928 105.376656,24.5037422 C104.215312,14.549368 98.3256411,7.83016536 87.7076419,4.34613439 C92.684829,7.16654041 96.0029538,9.90399332 97.6620161,12.5584931 C100.15061,16.5402428 100.399469,17.7845396 100.897188,22.7617267 C100.897188,27.7389138 100.773483,33.4684872 93.4314071,38.9375848 C88.5366897,42.5836498 82.7299714,43.1643216 76.0112522,40.6796003 L76.0112522,41.4261783 Z" id="Path-7" fill="#BCBDBF"></path>
                            <path d="M63.8171438,0.115525345 C45.069739,2.93593137 29.9722715,10.9823839 18.5247411,24.2548828 C7.07721079,37.5273818 3.17841422,47.481756 6.82835143,54.1180054 C2.01707056,45.1590687 4.422711,34.6240226 14.0452727,22.5128673 C23.6678345,10.401712 40.2584582,2.93593137 63.8171438,0.115525345 Z" id="Path-8" fill="#BCBDBF"></path>
                            <path d="M27.2348186,54.8645835 C21.0962878,50.0533026 21.5110534,43.0022876 28.4791153,33.7115383 C35.4471773,24.420789 44.0743016,19.3606488 54.3604883,18.5311176 C41.7516143,19.5265551 32.3779119,23.7571641 26.2393811,31.2229448 C20.1008504,38.6887254 18.6076943,45.1590687 21.7599128,50.6339745 C23.0786907,52.4373142 24.0741281,53.5986578 24.746225,54.1180054 C25.4183219,54.6373531 26.2478531,54.8862124 27.2348186,54.8645835 Z" id="Path-10" fill="#BCBDBF"></path>
                        </g>
                    </g>
                </g>
                <g id="Group-8" transform="translate(222.389474, 93.250000)">
                    <g id="Logo-tarjeta-/-visa" filter="url(#filter-4)">
                        <g>
                            <path d="M25.6385826,14.3383096 C26.5557946,14.3323278 27.4667649,14.4889444 28.3289429,14.800844 L28.3289429,14.800844 L27.8905775,17.1734739 L27.6155247,17.0535576 C26.9056181,16.7581514 26.1412097,16.6151418 25.3721251,16.6338505 C24.1945553,16.6338505 23.6530451,17.079254 23.6530451,17.5760501 C23.6530451,18.0728463 24.3234864,18.4240298 25.3721251,18.9293914 C27.1083961,19.7174129 27.8905775,20.668178 27.8905775,21.9101684 C27.8647913,24.1885784 25.819086,25.6618555 22.6645741,25.6618555 C21.5272252,25.6641153 20.3983439,25.4669595 19.3295588,25.0793853 L19.3295588,25.0793853 L19.7507334,22.6211009 L20.128931,22.7924099 C21.01411,23.1997592 21.9822743,23.3962364 22.9568177,23.3662951 C23.8163577,23.3662951 24.7532563,23.0322425 24.7532563,22.2956137 C24.7618517,21.7988175 24.3406771,21.4733304 23.1974889,20.9422724 C22.0543007,20.4112145 20.5672964,19.5375384 20.5672964,17.9614954 C20.5844873,15.8286981 22.6731694,14.3383096 25.6385826,14.3383096 Z M19.9054506,14.3381445 L18.0316534,25.3104874 L15.0318586,25.3104874 L16.9056559,14.3381445 L19.9054506,14.3381445 Z M33.8167138,14.33927 L33.9503347,14.3505162 L36.2710928,14.3505162 L38.7207818,25.3057283 L35.9358721,25.3057283 C35.9358721,25.3057283 35.6608193,24.046607 35.5662699,23.6697271 L35.5662699,23.6697271 L31.724126,23.6697271 L31.079471,25.2885974 L27.924959,25.2885974 L32.3859718,15.2670195 C32.635811,14.6410233 33.279933,14.2636557 33.9503347,14.3505162 Z M15.3412931,14.3381445 L10.5794413,25.2762256 L7.40773858,25.2762256 L4.77232006,15.8905924 C3.76177763,15.3298832 2.59493984,14.8817383 1.27921818,14.5776833 L1.27921818,14.5776833 L1.27921818,14.3464162 L6.36522492,14.3464162 C7.01780379,14.2749723 7.62593565,14.6730644 7.79145962,15.2800503 L7.79145962,15.2800503 L8.88580322,20.3165356 C8.87965156,20.3014585 8.8734501,20.2863959 8.86719887,20.2713481 L8.87755203,20.2996985 L9.18698644,21.8500452 L12.1266134,14.3381445 L15.3412931,14.3381445 Z M34.1738151,17.3141623 C34.0190978,17.725304 33.7784267,18.3591474 33.7784267,18.3591474 L33.7784267,18.3591474 L32.583666,21.4255789 L35.0677367,21.4255789 L34.3801047,18.256362 Z" id="Combined-Shape" fill="#1A1F71"></path>
                        </g>
                    </g>
                    <path d="M13.1539245,33.6647707 L13.1539245,31.2088122 L14.054726,31.2088122 C14.2510546,31.2088122 14.4401652,31.1751334 14.6220578,31.1077759 C14.8039504,31.0404184 14.9641892,30.9419728 15.102774,30.8124391 C15.2413589,30.6829054 15.3525155,30.5209883 15.4362438,30.3266878 C15.5199722,30.1323873 15.5618363,29.908294 15.5618363,29.654408 C15.5618363,29.3694339 15.5141978,29.131092 15.4189207,28.9393821 C15.3236436,28.7476723 15.2009383,28.5935272 15.0508047,28.4769469 C14.9006711,28.3603666 14.7332144,28.2787604 14.5484346,28.2321282 C14.3636548,28.1854961 14.1817622,28.16218 14.0027567,28.16218 L14.0027567,28.16218 L12.5562773,28.16218 L12.5562773,33.6647707 L13.1539245,33.6647707 Z M13.9767721,30.7502629 L13.1539245,30.7502629 L13.1539245,28.6285013 L13.9681105,28.6285013 C14.1066954,28.6285013 14.2351751,28.6479313 14.3535496,28.6867914 C14.4719242,28.7256515 14.5773064,28.7865324 14.6696963,28.8694339 C14.7620862,28.9523355 14.8342659,29.0598484 14.8862352,29.1919728 C14.9382045,29.3240971 14.9641892,29.4808329 14.9641892,29.66218 C14.9641892,30.0300557 14.8674685,30.3033718 14.6740271,30.4821282 C14.4805858,30.6608847 14.2481674,30.7502629 13.9767721,30.7502629 L13.9767721,30.7502629 Z M17.0776082,33.6647707 L17.0776082,27.7891231 L16.5059457,27.7891231 L16.5059457,33.6647707 L17.0776082,33.6647707 Z M19.1303964,33.765807 C19.6789614,33.765807 20.0254236,33.4911956 20.1697828,32.9419728 L20.1697828,32.9419728 L20.1871059,32.9419728 L20.1871059,32.9419728 L20.1871059,33.1090712 C20.1871059,33.1738381 20.1885495,33.2411956 20.1914367,33.3111438 C20.1943239,33.381092 20.197211,33.4471541 20.2000982,33.5093303 C20.2029854,33.5715065 20.2073162,33.6233199 20.2130906,33.6647707 L20.2130906,33.6647707 L20.7067991,33.6647707 C20.7010247,33.6233199 20.6952504,33.5676205 20.689476,33.4976723 C20.6837016,33.4277241 20.6793708,33.3525946 20.6764837,33.2722837 C20.6735965,33.1919728 20.6707093,33.1129572 20.6678221,33.035237 C20.6649349,32.9575168 20.6634913,32.89275 20.6634913,32.8409365 L20.6634913,31.2399003 C20.6634913,30.7321282 20.5682142,30.3461179 20.3776601,30.0818692 C20.1871059,29.8176205 19.8666284,29.6854961 19.4162276,29.6854961 C19.202576,29.6854961 18.9889243,29.7321282 18.7752727,29.8253925 C18.561621,29.9186567 18.38839,30.0507811 18.2555795,30.2217655 L18.2555795,30.2217655 L18.5587338,30.5404184 C18.6568981,30.4212474 18.7752727,30.3228018 18.9138575,30.2450816 C19.0524424,30.1673614 19.202576,30.1285013 19.3642583,30.1285013 C19.6010074,30.1285013 19.7886744,30.2062215 19.9272593,30.3616619 C20.0658441,30.5171023 20.1351366,30.7632163 20.1351366,31.1000039 L20.1351366,31.1000039 L20.1351366,31.3020764 L19.797336,31.3020764 C19.6183305,31.3020764 19.42922,31.3189158 19.2300042,31.3525946 C19.0307885,31.3862733 18.8474523,31.4523355 18.6799956,31.5507811 C18.5125389,31.6492267 18.373954,31.7839417 18.264241,31.9549262 C18.154528,32.1259106 18.0996715,32.3512992 18.0996715,32.631092 C18.0996715,32.8331645 18.1314305,33.0054443 18.1949486,33.1479313 C18.2584667,33.2904184 18.3393078,33.408294 18.4374721,33.5015583 C18.5356364,33.5948225 18.6453494,33.66218 18.7666111,33.7036308 C18.8878729,33.7450816 19.0091346,33.765807 19.1303964,33.765807 Z M19.2776428,33.3461179 C19.1217348,33.3461179 18.9773756,33.2865324 18.8445651,33.1673614 C18.7117546,33.0481904 18.6453494,32.8538899 18.6453494,32.5844598 C18.6453494,32.4031127 18.6799956,32.2554443 18.749288,32.1414547 C18.8185804,32.027465 18.9066396,31.9380868 19.0134654,31.8733199 C19.1202912,31.8085531 19.2429966,31.7645117 19.3815814,31.7411956 C19.5201663,31.7178795 19.6587511,31.7062215 19.797336,31.7062215 L19.797336,31.7062215 L20.1437981,31.7062215 L20.1437981,31.9704702 C20.1437981,32.1207293 20.1293622,32.2761697 20.1004904,32.4367914 C20.0716185,32.5974132 20.02398,32.7450816 19.9575747,32.8797966 C19.8911695,33.0145117 19.8016668,33.1259106 19.6890666,33.2139935 C19.5764664,33.3020764 19.4393251,33.3461179 19.2776428,33.3461179 Z M22.7855719,33.765807 C22.8837362,33.765807 22.9790133,33.7554443 23.0714032,33.7347189 C23.1637931,33.7139935 23.2417471,33.6906775 23.3052651,33.6647707 L23.3052651,33.6647707 L23.2792805,33.2528536 C23.2388599,33.2683977 23.1897778,33.2826464 23.1320341,33.2955997 C23.0742904,33.3085531 23.0194339,33.3150298 22.9674645,33.3150298 C22.817331,33.3150298 22.7047308,33.261921 22.629664,33.1557034 C22.5545972,33.0494857 22.5170638,32.8797966 22.5170638,32.646636 L22.5170638,32.646636 L22.5170638,30.2295376 L23.2792805,30.2295376 L23.2792805,29.8098484 L22.5170638,29.8098484 L22.5170638,28.7450816 L21.9540628,28.7450816 L21.9540628,29.8098484 L21.3997234,29.8098484 L21.3997234,30.2295376 L21.9627243,30.2295376 L21.9627243,32.7399003 C21.9627243,33.0507811 22.0247988,33.2994857 22.1489477,33.4860142 C22.2730967,33.6725427 22.4853047,33.765807 22.7855719,33.765807 Z M24.3619747,29.0015583 C24.4659133,29.0015583 24.555416,28.9665842 24.6304828,28.896636 C24.7055496,28.8266878 24.743083,28.7373096 24.743083,28.6285013 C24.743083,28.5248743 24.7069932,28.4367914 24.6348136,28.3642526 C24.562634,28.2917137 24.4716877,28.2554443 24.3619747,28.2554443 C24.2522616,28.2554443 24.1613153,28.2917137 24.0891357,28.3642526 C24.0169561,28.4367914 23.9808663,28.5248743 23.9808663,28.6285013 C23.9808663,28.7373096 24.0169561,28.8266878 24.0891357,28.896636 C24.1613153,28.9665842 24.2522616,29.0015583 24.3619747,29.0015583 Z M24.6478059,33.6647707 L24.6478059,29.8098484 L24.0761434,29.8098484 L24.0761434,33.6647707 L24.6478059,33.6647707 Z M26.5879939,33.6647707 L26.5879939,31.4419728 C26.5879939,31.2709883 26.6096478,31.1064806 26.6529555,30.9484495 C26.6962633,30.7904184 26.7568942,30.650522 26.8348482,30.5287604 C26.9128021,30.4069987 27.0080792,30.3111438 27.1206794,30.2411956 C27.2332796,30.1712474 27.3617593,30.1362733 27.5061186,30.1362733 C27.6504778,30.1362733 27.7674088,30.1686567 27.8569115,30.2334236 C27.9464142,30.2981904 28.0157066,30.381092 28.0647888,30.4821282 C28.1138709,30.5831645 28.1456299,30.6945635 28.1600658,30.8163251 C28.1745018,30.9380868 28.1817197,31.0585531 28.1817197,31.1777241 L28.1817197,31.1777241 L28.1817197,33.6647707 L28.7533823,33.6647707 L28.7533823,31.1777241 C28.7533823,31.0015583 28.7403899,30.8240971 28.7144053,30.6453407 C28.6884206,30.4665842 28.6378949,30.3059624 28.5628281,30.1634754 C28.4877613,30.0209883 28.3794919,29.9057034 28.2380198,29.8176205 C28.0965478,29.7295376 27.9103244,29.6854961 27.6793496,29.6854961 C27.4021799,29.6854961 27.1712052,29.7671023 26.9864254,29.9303148 C26.8016455,30.0935272 26.6688351,30.3046671 26.5879939,30.5637344 L26.5879939,30.5637344 L26.5706708,30.5637344 C26.5706708,30.4393821 26.5677836,30.3072578 26.5620092,30.1673614 C26.5562349,30.027465 26.5475733,29.908294 26.5360246,29.8098484 L26.5360246,29.8098484 L25.9816852,29.8098484 C25.9874595,29.8512992 25.9917903,29.9095894 25.9946775,29.9847189 C25.9975647,30.0598484 26.0004519,30.14275 26.003339,30.2334236 C26.0062262,30.3240971 26.0091134,30.4173614 26.0120006,30.5132163 C26.0148878,30.6090712 26.0163314,30.6984495 26.0163314,30.781351 L26.0163314,30.781351 L26.0163314,33.6647707 L26.5879939,33.6647707 Z M31.0920017,33.7891231 C31.3691714,33.7891231 31.6001462,33.7075168 31.784926,33.5443044 C31.9697058,33.381092 32.1025163,33.1699521 32.1833574,32.9108847 L32.1833574,32.9108847 L32.2006805,32.9108847 C32.2006805,33.035237 32.2035677,33.1673614 32.2093421,33.3072578 C32.2151165,33.4471541 32.223778,33.5663251 32.2353267,33.6647707 L32.2353267,33.6647707 L32.7896662,33.6647707 C32.7838918,33.6285013 32.779561,33.5715065 32.7766738,33.4937863 C32.7737867,33.4160661 32.7708995,33.3318692 32.7680123,33.2411956 C32.7651251,33.150522 32.7622379,33.0572578 32.7593507,32.9614028 C32.7564635,32.8655479 32.75502,32.7761697 32.75502,32.6932681 L32.75502,32.6932681 L32.75502,29.8098484 L32.1833574,29.8098484 L32.1833574,32.0326464 C32.1833574,32.2036308 32.1617035,32.3681386 32.1183958,32.5261697 C32.075088,32.6842008 32.0144571,32.8240971 31.9365032,32.9458588 C31.8585492,33.0676205 31.7632721,33.1634754 31.6506719,33.2334236 C31.5380717,33.3033718 31.409592,33.3383458 31.2652328,33.3383458 C31.1150992,33.3383458 30.9967246,33.3059624 30.9101091,33.2411956 C30.8234935,33.1764288 30.7556447,33.0935272 30.7065626,32.9924909 C30.6574804,32.8914547 30.6257214,32.7800557 30.6112855,32.658294 C30.5968496,32.5365324 30.5896316,32.4160661 30.5896316,32.2968951 L30.5896316,32.2968951 L30.5896316,29.8098484 L30.0179691,29.8098484 L30.0179691,32.2968951 C30.0179691,32.4782422 30.0309614,32.6569987 30.0569461,32.8331645 C30.0829307,33.0093303 30.1334564,33.1686567 30.2085232,33.3111438 C30.28359,33.4536308 30.3918595,33.5689158 30.5333315,33.6569987 C30.6748035,33.7450816 30.8610269,33.7891231 31.0920017,33.7891231 Z M34.7211926,33.6647707 L34.7211926,31.4419728 C34.7211926,31.2709883 34.7414029,31.1064806 34.7818235,30.9484495 C34.822244,30.7904184 34.8814313,30.650522 34.9593853,30.5287604 C35.0373393,30.4069987 35.1311728,30.3111438 35.2408858,30.2411956 C35.3505988,30.1712474 35.4776349,30.1362733 35.6219942,30.1362733 C35.7663534,30.1362733 35.8832843,30.1673614 35.9727871,30.2295376 C36.0622898,30.2917137 36.128695,30.3733199 36.1720028,30.4743562 C36.2153106,30.5753925 36.2441824,30.6880868 36.2586183,30.8124391 C36.2730543,30.9367914 36.2802722,31.0585531 36.2802722,31.1777241 L36.2802722,31.1777241 L36.2802722,33.6647707 L36.8519347,33.6647707 L36.8519347,31.4419728 C36.8519347,31.2709883 36.872145,31.1064806 36.9125656,30.9484495 C36.9529862,30.7904184 37.0107299,30.650522 37.0857967,30.5287604 C37.1608635,30.4069987 37.254697,30.3111438 37.3672972,30.2411956 C37.4798974,30.1712474 37.6054899,30.1362733 37.7440747,30.1362733 C37.8942083,30.1362733 38.0140265,30.1686567 38.1035292,30.2334236 C38.1930319,30.2981904 38.2608808,30.381092 38.3070757,30.4821282 C38.3532707,30.5831645 38.3835861,30.6945635 38.398022,30.8163251 C38.412458,30.9380868 38.4196759,31.0585531 38.4196759,31.1777241 L38.4196759,31.1777241 L38.4196759,33.6647707 L39,33.6647707 L39,31.1777241 C39,31.0015583 38.9870077,30.8240971 38.961023,30.6453407 C38.9350383,30.4665842 38.883069,30.3059624 38.805115,30.1634754 C38.7271611,30.0209883 38.6188916,29.9057034 38.4803068,29.8176205 C38.3417219,29.7295376 38.1569421,29.6854961 37.9259674,29.6854961 C37.7700594,29.6854961 37.630031,29.7101075 37.505882,29.7593303 C37.3817331,29.8085531 37.2720201,29.8746153 37.176743,29.9575168 C37.0814659,30.0404184 37.0020683,30.134978 36.9385503,30.2411956 C36.8750322,30.3474132 36.8259501,30.4575168 36.7913039,30.5715065 L36.7913039,30.5715065 L36.7739808,30.5715065 C36.7508833,30.4575168 36.7176807,30.3461179 36.6743729,30.2373096 C36.6310651,30.1285013 36.5704343,30.0339417 36.4924803,29.9536308 C36.4145263,29.8733199 36.3192492,29.8085531 36.206649,29.7593303 C36.0940488,29.7101075 35.9597947,29.6854961 35.8038868,29.6854961 C35.5151683,29.6854961 35.2798628,29.7671023 35.0979702,29.9303148 C34.9160775,30.0935272 34.7933722,30.3046671 34.7298541,30.5637344 L34.7298541,30.5637344 L34.712531,30.5637344 C34.712531,30.4393821 34.7096439,30.3072578 34.7038695,30.1673614 C34.6980951,30.027465 34.6894336,29.908294 34.6778848,29.8098484 L34.6778848,29.8098484 L34.1235454,29.8098484 C34.1293198,29.8512992 34.1336505,29.9095894 34.1365377,29.9847189 C34.1394249,30.0598484 34.1423121,30.14275 34.1451993,30.2334236 C34.1480865,30.3240971 34.1509737,30.4173614 34.1538608,30.5132163 C34.156748,30.6090712 34.1581916,30.6984495 34.1581916,30.781351 L34.1581916,30.781351 L34.1581916,33.6647707 L34.7211926,33.6647707 Z" id="Platinum" fill="#031D78" fill-rule="nonzero"></path>
                </g>
            </g>
        </g>
    </g>
</svg>