<?xml version="1.0" encoding="UTF-8"?>
<svg width="281px" height="139px" viewBox="0 0 281 139" version="1.1" xmlns="http://www.w3.org/2000/svg" xmlns:xlink="http://www.w3.org/1999/xlink">
    <title>Tarjetas / credito / visa smart+ Copy</title>
    <defs>
        <linearGradient x1="85.872886%" y1="38.3769133%" x2="18.933878%" y2="65.033022%" id="linearGradient-1">
            <stop stop-color="#64646B" offset="0%"></stop>
            <stop stop-color="#909093" offset="51.575646%"></stop>
            <stop stop-color="#656469" offset="100%"></stop>
        </linearGradient>
        <rect id="path-2" x="0" y="0" width="186.931818" height="134.729567"></rect>
        <linearGradient x1="100%" y1="50%" x2="9.24405185%" y2="50%" id="linearGradient-4">
            <stop stop-color="#FFFFFF" stop-opacity="0" offset="0%"></stop>
            <stop stop-color="#FFFFFF" stop-opacity="0.15" offset="19.8495505%"></stop>
            <stop stop-color="#FFFFFF" stop-opacity="0.15" offset="53.709401%"></stop>
            <stop stop-color="#FFFFFF" stop-opacity="0" offset="100%"></stop>
        </linearGradient>
        <filter color-interpolation-filters="auto" id="filter-5">
            <feColorMatrix in="SourceGraphic" type="matrix" values="0 0 0 0 1.000000 0 0 0 0 1.000000 0 0 0 0 1.000000 0 0 0 1.000000 0"></feColorMatrix>
        </filter>
        <rect id="path-6" x="0" y="0" width="163" height="134.807692"></rect>
        <linearGradient x1="100%" y1="50%" x2="9.24405185%" y2="50%" id="linearGradient-8">
            <stop stop-color="#FFFFFF" stop-opacity="0" offset="0%"></stop>
            <stop stop-color="#FFFFFF" stop-opacity="0.15" offset="19.8495505%"></stop>
            <stop stop-color="#FFFFFF" stop-opacity="0.15" offset="53.709401%"></stop>
            <stop stop-color="#FFFFFF" stop-opacity="0" offset="100%"></stop>
        </linearGradient>
        <filter color-interpolation-filters="auto" id="filter-9">
            <feColorMatrix in="SourceGraphic" type="matrix" values="0 0 0 0 1.000000 0 0 0 0 1.000000 0 0 0 0 1.000000 0 0 0 1.000000 0"></feColorMatrix>
        </filter>
        <filter color-interpolation-filters="auto" id="filter-10">
            <feColorMatrix in="SourceGraphic" type="matrix" values="0 0 0 0 1.000000 0 0 0 0 1.000000 0 0 0 0 1.000000 0 0 0 1.000000 0"></feColorMatrix>
        </filter>
    </defs>
    <g id="cambio-clave-tarjeta" stroke="none" stroke-width="1" fill="none" fill-rule="evenodd">
        <g id="Artboard" transform="translate(-3331.000000, -1497.000000)">
            <g id="Tarjetas-/-credito-/-visa-smart+-Copy" transform="translate(3331.207584, 1497.136338)">
                <g id="Cards-cuentas-/-card-cuentas-+-ver-detalle">
                    <rect id="bg" fill="url(#linearGradient-1)" fill-rule="nonzero" x="0" y="0" width="280" height="135" rx="8"></rect>
                    <g id="tramas" transform="translate(64.431818, 0.000000)">
                        <mask id="mask-3" fill="white">
                            <use xlink:href="#path-2"></use>
                        </mask>
                        <g id="Rectangle"></g>
                        <path d="M103.157814,43.4112079 L103.157814,56.4393029 L80.8927356,75.2884615 L80.8927356,87.484976 L73.6801044,93.5832332 L73.6801044,106.195538 L51.4150258,125.044697 L51.4150258,137.657001 L44.2023946,143.755258 L44.2023946,156.228966 L21.937316,175.078125 L21.937316,162.05003 L44.2023946,143.200871 L44.2023946,130.44997 L51.4150258,124.628906 L51.4150258,112.016602 L73.6801044,93.1674429 L73.6801044,80.2779447 L80.8927356,74.456881 L80.8927356,62.2603666 L103.157814,43.4112079 Z M132.527045,123.087999 L132.526956,136.092052 L110.370481,154.704402 L110.370481,141.695635 L132.527045,123.087999 Z M161.786766,21.1650145 L161.786766,34.1690672 L139.630291,52.7814171 L139.630291,65.4328494 L132.527045,71.3914099 L132.52692,83.870932 L139.630166,77.9217999 L139.630166,91.0188789 L132.52692,96.9774394 L132.526956,84.3954626 L110.370481,103.007813 L110.370445,115.585232 L132.52692,96.9774394 L132.52692,109.981492 L110.370445,128.593842 L110.370445,115.758714 L103.157814,121.856971 L103.157814,134.330679 L80.8927356,153.179838 L80.8927356,140.151743 L103.157814,121.302584 L103.157814,108.551683 L110.370445,102.730619 L110.370481,89.9990457 L132.526956,71.3912528 L132.526956,58.2849025 L139.630291,52.3357704 L139.630291,39.7728074 L161.786766,21.1650145 Z M51.4150258,163.574594 L44.2023946,169.672852 L44.2023946,156.367563 L51.4150258,150.546499 L51.4150258,137.795598 L73.6801044,118.946439 L73.6801044,106.195538 L80.8927356,100.374474 L80.8927356,88.3165565 L103.157814,69.4673978 L103.157814,56.7164964 L110.370445,50.8954327 L110.370445,63.8886427 L132.52692,45.2808499 L132.52692,58.2849025 L110.370445,76.8972524 L110.370445,89.8411208 L103.157814,95.939378 L103.157814,108.551683 L80.8927356,127.400841 L80.8927356,139.320162 L73.6801044,145.418419 L73.6801044,132.113131 L80.8927356,126.292067 L80.8927356,114.372746 L103.157814,95.5235877 L103.157814,82.6340895 L110.370445,76.8130258 L110.370445,63.9235276 L103.157814,70.0217849 L103.157814,82.4954928 L80.8927356,101.344651 L80.8927356,113.402569 L73.6801044,119.500826 L73.6801044,131.974534 L51.4150258,150.823693 L51.4150258,163.574594 Z M80.8927356,48.5392879 L80.8927356,61.5673828 L73.6801044,67.66564 L73.6801044,80.139348 L51.4150258,98.9885066 L51.4150258,111.739408 L44.2023946,117.837665 L44.2023946,130.44997 L21.937316,149.299129 L21.937316,136.271034 L44.2023946,117.421875 L44.2023946,104.532377 L51.4150258,98.7113131 L51.4150258,85.9604117 L73.6801044,67.111253 L73.6801044,54.3603516 L80.8927356,48.5392879 Z M110.370445,128.648212 L110.370445,141.676307 L103.157814,147.774564 L103.157814,134.469276 L110.370445,128.648212 Z M161.78689,98.9721641 L161.786801,111.976217 L139.630326,130.588567 L139.630326,117.5798 L161.78689,98.9721641 Z M51.4150258,72.79372 L51.4150258,85.8218149 L44.2023946,91.9200721 L44.2023946,104.39378 L21.937316,123.242939 L21.937316,110.214844 L44.2023946,91.3656851 L44.2023946,78.6147837 L51.4150258,72.79372 Z M161.786766,72.8616041 L161.786766,85.8656567 L139.630291,104.478007 L139.630291,117.129439 L132.527045,123.087999 L132.526956,109.981492 L139.630291,104.03236 L139.630291,91.469397 L161.786766,72.8616041 Z M168.890136,79.9165246 L168.890136,93.0136037 L161.78689,98.9721641 L161.786801,85.8656567 L168.890136,79.9165246 Z M161.78689,47.2755746 L161.786766,59.7550967 L168.890012,53.8059645 L168.890012,66.9030436 L161.786766,72.8616041 L161.786801,60.2796273 L139.630326,78.8919772 L139.630326,65.8832103 L161.78689,47.2755746 Z M168.890136,28.2199351 L168.890136,41.3170141 L161.78689,47.2755746 L161.786801,34.1690672 L168.890136,28.2199351 Z M139.630166,26.2252103 L139.630166,39.3222894 L132.52692,45.2808499 L132.52692,32.1743425 L139.630166,26.2252103 Z M168.890012,2.109375 L168.890012,15.2064541 L161.786766,21.1650145 L161.786766,8.05850713 L168.890012,2.109375 Z" id="Combined-Shape" fill="url(#linearGradient-4)" mask="url(#mask-3)"></path>
                    </g>
                    <g id="Logo-tarjeta-/-visa" transform="translate(222.389474, 58.500000)" filter="url(#filter-5)">
                        <g>
                            <path d="M25.6385826,14.3383096 C26.5557946,14.3323278 27.4667649,14.4889444 28.3289429,14.800844 L28.3289429,14.800844 L27.8905775,17.1734739 L27.6155247,17.0535576 C26.9056181,16.7581514 26.1412097,16.6151418 25.3721251,16.6338505 C24.1945553,16.6338505 23.6530451,17.079254 23.6530451,17.5760501 C23.6530451,18.0728463 24.3234864,18.4240298 25.3721251,18.9293914 C27.1083961,19.7174129 27.8905775,20.668178 27.8905775,21.9101684 C27.8647913,24.1885784 25.819086,25.6618555 22.6645741,25.6618555 C21.5272252,25.6641153 20.3983439,25.4669595 19.3295588,25.0793853 L19.3295588,25.0793853 L19.7507334,22.6211009 L20.128931,22.7924099 C21.01411,23.1997592 21.9822743,23.3962364 22.9568177,23.3662951 C23.8163577,23.3662951 24.7532563,23.0322425 24.7532563,22.2956137 C24.7618517,21.7988175 24.3406771,21.4733304 23.1974889,20.9422724 C22.0543007,20.4112145 20.5672964,19.5375384 20.5672964,17.9614954 C20.5844873,15.8286981 22.6731694,14.3383096 25.6385826,14.3383096 Z M19.9054506,14.3381445 L18.0316534,25.3104874 L15.0318586,25.3104874 L16.9056559,14.3381445 L19.9054506,14.3381445 Z M33.8167138,14.33927 L33.9503347,14.3505162 L36.2710928,14.3505162 L38.7207818,25.3057283 L35.9358721,25.3057283 C35.9358721,25.3057283 35.6608193,24.046607 35.5662699,23.6697271 L35.5662699,23.6697271 L31.724126,23.6697271 L31.079471,25.2885974 L27.924959,25.2885974 L32.3859718,15.2670195 C32.635811,14.6410233 33.279933,14.2636557 33.9503347,14.3505162 Z M15.3412931,14.3381445 L10.5794413,25.2762256 L7.40773858,25.2762256 L4.77232006,15.8905924 C3.76177763,15.3298832 2.59493984,14.8817383 1.27921818,14.5776833 L1.27921818,14.5776833 L1.27921818,14.3464162 L6.36522492,14.3464162 C7.01780379,14.2749723 7.62593565,14.6730644 7.79145962,15.2800503 L7.79145962,15.2800503 L8.88580322,20.3165356 C8.87965156,20.3014585 8.8734501,20.2863959 8.86719887,20.2713481 L8.87755203,20.2996985 L9.18698644,21.8500452 L12.1266134,14.3381445 L15.3412931,14.3381445 Z M34.1738151,17.3141623 C34.0190978,17.725304 33.7784267,18.3591474 33.7784267,18.3591474 L33.7784267,18.3591474 L32.583666,21.4255789 L35.0677367,21.4255789 L34.3801047,18.256362 Z" id="Combined-Shape" fill="#1A1F71"></path>
                        </g>
                    </g>
                </g>
                <g id="Cards-cuentas-/-card-cuentas-+-ver-detalle">
                    <rect id="bg" fill="url(#linearGradient-1)" fill-rule="nonzero" x="0" y="0" width="280" height="135" rx="8"></rect>
                    <g id="tramas" transform="translate(81.000000, 0.000000)">
                        <mask id="mask-7" fill="white">
                            <use xlink:href="#path-6"></use>
                        </mask>
                        <g id="Rectangle"></g>
                        <path d="M67.9040117,38.4671246 L67.9040117,49.689881 L33.9969604,65.9270605 L33.9969604,76.4334708 L23.012986,81.6866759 L23.012986,92.5512592 L-10.8940652,108.788439 L-10.8940652,119.653022 L-21.8780396,124.906227 L-21.8780396,135.651419 L-55.7850909,151.888599 L-55.7850909,140.665843 L-21.8780396,124.428663 L-21.8780396,113.444689 L-10.8940652,108.430266 L-10.8940652,97.5656823 L23.012986,81.3285028 L23.012986,70.2251374 L33.9969604,65.2107143 L33.9969604,54.7043041 L67.9040117,38.4671246 Z M112.629836,107.102886 L112.629701,118.304932 L78.8880401,134.338118 L78.8880401,123.132012 L112.629836,107.102886 Z M157.18908,41.7959955 L157.188909,52.545599 L168.006285,47.4214515 L168.006285,58.7036327 L157.188891,63.8364993 L157.187909,52.997599 L123.447284,69.0312272 L123.447041,79.4776712 L112.629647,84.6105377 L112.629701,73.7720796 L78.8880401,89.8052656 L78.887986,100.639798 L112.629647,84.6105377 L112.629647,95.8125835 L78.887986,111.845769 L78.887986,100.78924 L67.9040117,106.042445 L67.9040117,116.787637 L33.9969604,133.024817 L33.9969604,121.80206 L67.9040117,105.564881 L67.9040117,94.5809066 L78.887986,89.5664836 L78.8880401,78.599159 L112.629836,62.5700339 L112.629647,73.3202347 L123.447041,68.19549 L123.447284,57.8251205 L157.18908,41.7959955 Z M-10.8940652,141.979144 L-21.8780396,147.232349 L-21.8780396,135.77081 L-10.8940652,130.756387 L-10.8940652,119.772413 L23.012986,103.535234 L23.012986,92.5512592 L33.9969604,87.5368361 L33.9969604,77.1498169 L67.9040117,60.9126374 L67.9040117,49.9286631 L78.887986,44.91424 L78.887986,56.1069456 L112.629647,40.0776852 L112.629647,51.2797309 L78.887986,67.3129169 L78.887986,78.4631182 L67.9040117,83.7163233 L67.9040117,94.5809066 L33.9969604,110.818086 L33.9969604,121.085714 L23.012986,126.338919 L23.012986,114.877381 L33.9969604,109.862958 L33.9969604,99.5953297 L67.9040117,83.3581502 L67.9040117,72.2547849 L78.887986,67.2403618 L78.887986,56.1369964 L67.9040117,61.3902015 L67.9040117,72.1353938 L33.9969604,88.3725733 L33.9969604,98.7595925 L23.012986,104.012798 L23.012986,114.75799 L-10.8940652,130.995169 L-10.8940652,141.979144 Z M33.9969604,42.8845925 L33.9969604,54.107349 L23.012986,59.3605541 L23.012986,70.1057464 L-10.8940652,86.3429259 L-10.8940652,97.3269002 L-21.8780396,102.580105 L-21.8780396,113.444689 L-55.7850909,129.681868 L-55.7850909,118.459112 L-21.8780396,102.221932 L-21.8780396,91.1185669 L-10.8940652,86.1041438 L-10.8940652,75.1201695 L23.012986,58.88299 L23.012986,47.8990156 L33.9969604,42.8845925 Z M78.887986,111.892605 L78.887986,123.115362 L67.9040117,128.368567 L67.9040117,116.907028 L78.887986,111.892605 Z M157.18908,86.328848 L157.188945,97.5308937 L123.447284,113.56408 L123.447284,102.357973 L157.18908,86.328848 Z M-10.8940652,63.778022 L-10.8940652,75.0007784 L-21.8780396,80.2539836 L-21.8780396,90.9991759 L-55.7850909,107.236355 L-55.7850909,96.013599 L-21.8780396,79.7764195 L-21.8780396,68.7924451 L-10.8940652,63.778022 Z M157.188891,63.8364993 L157.188891,75.038545 L123.44723,91.071731 L123.44723,101.97002 L112.629836,107.102886 L112.629701,95.8125835 L123.44723,90.6878387 L123.44723,79.8657597 L157.188891,63.8364993 Z M168.006475,69.9138003 L168.006475,81.1959815 L157.18908,86.328848 L157.188945,75.038545 L168.006475,69.9138003 Z M157.188891,19.3036467 L157.188891,30.5056924 L123.44723,46.5388784 L123.44723,57.4371674 L112.629836,62.5700339 L112.629701,51.2797309 L123.44723,46.1549862 L123.44723,35.3329071 L157.188891,19.3036467 Z M168.006475,25.3809477 L168.006475,36.6631289 L157.18908,41.7959955 L157.188945,30.5056924 L168.006475,25.3809477 Z M123.447041,23.6626374 L123.447041,34.9448186 L112.629647,40.0776852 L112.629647,28.7873821 L123.447041,23.6626374 Z M168.006285,2.88859896 L168.006285,14.1707802 L157.188891,19.3036467 L157.188891,8.01334367 L168.006285,2.88859896 Z" id="Combined-Shape" fill="url(#linearGradient-8)" mask="url(#mask-7)"></path>
                    </g>
                    <g id="Logo-tarjeta-/-visa" transform="translate(224.389474, 94.807692)" filter="url(#filter-9)">
                        <g>
                            <path d="M25.6385826,14.3383096 C26.5557946,14.3323278 27.4667649,14.4889444 28.3289429,14.800844 L28.3289429,14.800844 L27.8905775,17.1734739 L27.6155247,17.0535576 C26.9056181,16.7581514 26.1412097,16.6151418 25.3721251,16.6338505 C24.1945553,16.6338505 23.6530451,17.079254 23.6530451,17.5760501 C23.6530451,18.0728463 24.3234864,18.4240298 25.3721251,18.9293914 C27.1083961,19.7174129 27.8905775,20.668178 27.8905775,21.9101684 C27.8647913,24.1885784 25.819086,25.6618555 22.6645741,25.6618555 C21.5272252,25.6641153 20.3983439,25.4669595 19.3295588,25.0793853 L19.3295588,25.0793853 L19.7507334,22.6211009 L20.128931,22.7924099 C21.01411,23.1997592 21.9822743,23.3962364 22.9568177,23.3662951 C23.8163577,23.3662951 24.7532563,23.0322425 24.7532563,22.2956137 C24.7618517,21.7988175 24.3406771,21.4733304 23.1974889,20.9422724 C22.0543007,20.4112145 20.5672964,19.5375384 20.5672964,17.9614954 C20.5844873,15.8286981 22.6731694,14.3383096 25.6385826,14.3383096 Z M19.9054506,14.3381445 L18.0316534,25.3104874 L15.0318586,25.3104874 L16.9056559,14.3381445 L19.9054506,14.3381445 Z M33.8167138,14.33927 L33.9503347,14.3505162 L36.2710928,14.3505162 L38.7207818,25.3057283 L35.9358721,25.3057283 C35.9358721,25.3057283 35.6608193,24.046607 35.5662699,23.6697271 L35.5662699,23.6697271 L31.724126,23.6697271 L31.079471,25.2885974 L27.924959,25.2885974 L32.3859718,15.2670195 C32.635811,14.6410233 33.279933,14.2636557 33.9503347,14.3505162 Z M15.3412931,14.3381445 L10.5794413,25.2762256 L7.40773858,25.2762256 L4.77232006,15.8905924 C3.76177763,15.3298832 2.59493984,14.8817383 1.27921818,14.5776833 L1.27921818,14.5776833 L1.27921818,14.3464162 L6.36522492,14.3464162 C7.01780379,14.2749723 7.62593565,14.6730644 7.79145962,15.2800503 L7.79145962,15.2800503 L8.88580322,20.3165356 C8.87965156,20.3014585 8.8734501,20.2863959 8.86719887,20.2713481 L8.87755203,20.2996985 L9.18698644,21.8500452 L12.1266134,14.3381445 L15.3412931,14.3381445 Z M34.1738151,17.3141623 C34.0190978,17.725304 33.7784267,18.3591474 33.7784267,18.3591474 L33.7784267,18.3591474 L32.583666,21.4255789 L35.0677367,21.4255789 L34.3801047,18.256362 Z" id="Combined-Shape" fill="#1A1F71"></path>
                        </g>
                    </g>
                </g>
                <g id="Group-5" transform="translate(212.561785, 12.000992)">
                    <g id="logo-smart" filter="url(#filter-10)">
                        <g>
                            <path d="M3.30882646,9.99989669 C3.88670994,9.99989669 4.40387377,9.92242681 4.86031797,9.76748703 C5.31676216,9.61254726 5.70201781,9.39479407 6.01608492,9.11422745 C6.33015203,8.83366083 6.56884303,8.49656214 6.73215793,8.10293137 C6.89547282,7.70930059 6.97713027,7.26960664 6.97713027,6.78384952 C6.97713027,6.06358895 6.79078379,5.47942413 6.41809082,5.03135506 C6.04539785,4.58328598 5.45704547,4.22524948 4.65303368,3.95724555 C4.45203073,3.89024457 4.248934,3.82743115 4.04374349,3.76880529 C3.83855298,3.71017943 3.65430028,3.64108466 3.49098538,3.561521 C3.32767048,3.48195733 3.1957623,3.3877372 3.09526083,3.2788606 C2.99475935,3.169984 2.94450861,3.03179447 2.94450861,2.86429202 C2.94450861,2.62141345 3.04501009,2.42459807 3.24601304,2.27384586 C3.44701599,2.12309364 3.70664479,2.04771754 4.02489946,2.04771754 C4.27615315,2.04771754 5.36452791,2.15803361 6.24993543,2.41844759 L6.97909457,0.491384161 C5.88535587,0.022639004 4.11702581,-4.73690264e-14 3.64801893,-4.73690264e-14 C3.14551156,-4.73690264e-14 2.69116115,0.0753761057 2.28496769,0.226128317 C1.87877423,0.376880529 1.53539419,0.588352381 1.25482758,0.860543874 C0.974260961,1.13273537 0.756507767,1.45936516 0.601567994,1.84043325 C0.446628221,2.22150134 0.369158335,2.64653882 0.369158335,3.1155457 C0.369158335,3.58455258 0.44244066,3.97190202 0.58900531,4.277594 C0.73556996,4.58328598 0.928197786,4.83663345 1.16688879,5.0376364 C1.40557979,5.23863935 1.67777128,5.39986046 1.98346327,5.52129974 C2.28915525,5.64273903 2.60112858,5.7537094 2.91938325,5.85421088 C3.18738718,5.94633723 3.41560927,6.03008846 3.60404954,6.10546456 C3.7924898,6.18084067 3.9453358,6.26249812 4.06258752,6.35043691 C4.17983924,6.4383757 4.26359046,6.53468961 4.3138412,6.63937865 C4.36409194,6.74406768 4.38921731,6.86760074 4.38921731,7.00997783 C4.38921731,7.24448127 4.29080961,7.45385934 4.09399423,7.63811205 C3.89717884,7.82236475 3.73530204,7.88975832 3.1957623,7.9144911 C2.65622256,7.93922389 1.24998709,7.7308927 0.833324724,7.47047873 L0,9.39754215 C1.24998709,10.0225357 2.11118389,9.99989669 3.30882646,9.99989669 Z M21.2909655,9.84029757 L21.8562863,8.19458593 L25.3738379,8.19458593 L25.9391587,9.84029757 L28.5647597,9.84029757 L24.9592693,0.368033614 L22.2708549,0.368033614 L18.6653645,9.84029757 L21.2909655,9.84029757 Z M24.7205783,6.32274597 L22.5095459,6.32274597 L23.6150621,3.16951221 L24.7205783,6.32274597 Z M31.6629968,9.84029757 L31.6629968,6.19711912 L34.0122188,9.84029757 L37.0775138,9.84029757 L34.1001576,5.95842812 C34.7785425,5.79930079 35.2915188,5.49570258 35.6390864,5.04763351 C35.986654,4.59956444 36.1604378,4.01539962 36.1604378,3.29513905 C36.1604378,2.89313316 36.0955306,2.51625263 35.9657162,2.16449747 C35.8359018,1.81274231 35.643274,1.50286276 35.3878327,1.23485883 C35.1323915,0.966854899 34.8078555,0.755383046 34.4142247,0.600443273 C34.0205939,0.445503501 33.5599622,0.368033614 33.0323294,0.368033614 L33.0323294,0.368033614 L29.2007107,0.368033614 L29.2007107,9.84029757 L31.6629968,9.84029757 Z M32.1278161,4.60165822 L31.6629968,4.60165822 L31.6629968,2.26499894 L32.1278161,2.26499894 C32.6135733,2.26499894 32.9862662,2.36550042 33.245895,2.56650336 C33.5055239,2.76750631 33.6353383,3.05644805 33.6353383,3.43332858 C33.6353383,3.81020911 33.5055239,4.09915085 33.245895,4.3001538 C32.9862662,4.50115674 32.6135733,4.60165822 32.1278161,4.60165822 L32.1278161,4.60165822 Z M41.2184537,9.84029757 L41.2184537,2.45343921 L43.2410458,2.45343921 L43.9077056,0.368033614 L36.0669156,0.368033614 L36.7335754,2.45343921 L38.7561675,2.45343921 L38.7561675,9.84029757 L41.2184537,9.84029757 Z" id="SMART" fill="#222222" fill-rule="nonzero"></path>
                            <polygon id="M" fill="#222222" fill-rule="nonzero" points="9.86292398 9.79300604 9.86292398 4.11480111 12.1358985 9.79300604 13.6677742 9.79300604 15.9407487 4.06151847 15.9407487 9.79300604 18.1967981 9.79300604 18.1967981 0.348659163 15.2480744 0.348659163 12.9218173 6.05773668 10.5289569 0.348659163 7.66015721 0.348659163 7.66015721 9.79300604"></polygon>
                        </g>
                    </g>
                    <polygon id="+" fill="#FFFFFF" fill-rule="nonzero" points="49.3172361 7.7565123 49.3172361 4.88519015 52.1006606 4.88519015 52.1006606 3.28838344 49.3172361 3.28838344 49.3172361 0.431710885 47.6764806 0.431710885 47.6764806 3.28838344 44.9077056 3.28838344 44.9077056 4.88519015 47.6764806 4.88519015 47.6764806 7.7565123"></polygon>
                </g>
            </g>
        </g>
    </g>
</svg>