<?xml version="1.0" encoding="UTF-8"?>
<svg width="281px" height="136px" viewBox="0 0 281 136" version="1.1" xmlns="http://www.w3.org/2000/svg" xmlns:xlink="http://www.w3.org/1999/xlink">
    <title>Tarjetas / credito / visa smart Copy 2</title>
    <defs>
        <linearGradient x1="85.872886%" y1="38.3769133%" x2="18.933878%" y2="65.033022%" id="linearGradient-1">
            <stop stop-color="#E16301" offset="0%"></stop>
            <stop stop-color="#FE7E00" offset="51.575646%"></stop>
            <stop stop-color="#E16500" offset="100%"></stop>
        </linearGradient>
        <rect id="path-2" x="0" y="0" width="186.931818" height="134.729567"></rect>
        <linearGradient x1="100%" y1="50%" x2="9.24405185%" y2="50%" id="linearGradient-4">
            <stop stop-color="#000000" stop-opacity="0" offset="0%"></stop>
            <stop stop-color="#000000" stop-opacity="0.08" offset="19.8495505%"></stop>
            <stop stop-color="#000000" stop-opacity="0.08" offset="53.709401%"></stop>
            <stop stop-color="#000000" stop-opacity="0" offset="100%"></stop>
        </linearGradient>
        <filter color-interpolation-filters="auto" id="filter-5">
            <feColorMatrix in="SourceGraphic" type="matrix" values="0 0 0 0 1.000000 0 0 0 0 1.000000 0 0 0 0 1.000000 0 0 0 1.000000 0"></feColorMatrix>
        </filter>
        <filter color-interpolation-filters="auto" id="filter-6">
            <feColorMatrix in="SourceGraphic" type="matrix" values="0 0 0 0 1.000000 0 0 0 0 1.000000 0 0 0 0 1.000000 0 0 0 1.000000 0"></feColorMatrix>
        </filter>
    </defs>
    <g id="cambio-clave-tarjeta" stroke="none" stroke-width="1" fill="none" fill-rule="evenodd">
        <g id="Artboard" transform="translate(-3331.000000, -977.000000)">
            <g id="Tarjetas-/-credito-/-visa-smart-Copy-2" transform="translate(3331.207584, 977.741701)">
                <g id="Cards-cuentas-/-card-cuentas-+-ver-detalle">
                    <rect id="bg" fill="url(#linearGradient-1)" fill-rule="nonzero" x="0" y="0" width="280" height="135" rx="8"></rect>
                    <g id="tramas" transform="translate(64.431818, 0.000000)">
                        <mask id="mask-3" fill="white">
                            <use xlink:href="#path-2"></use>
                        </mask>
                        <g id="Rectangle"></g>
                        <path d="M76.1415328,38.4218151 L76.1415328,49.644493 L42.2347187,65.8815589 L42.2347187,76.3878956 L31.2508212,81.641064 L31.2508212,92.5055713 L-2.65599292,108.742637 L-2.65599292,119.607145 L-13.6398904,124.860313 L-13.6398904,135.60543 L-47.5467045,151.842496 L-47.5467045,140.619818 L-13.6398904,124.382752 L-13.6398904,113.398855 L-2.65599292,108.384467 L-2.65599292,97.5199593 L31.2508212,81.2828934 L31.2508212,70.1796057 L42.2347187,65.1652177 L42.2347187,54.658881 L76.1415328,38.4218151 Z M120.867044,107.057097 L120.866909,118.259064 L87.1254844,134.292138 L87.1254844,123.08611 L120.867044,107.057097 Z M165.425788,19.2584712 L165.425788,30.4604386 L131.684363,46.4935124 L131.684363,57.3917251 L120.867044,62.5245558 L120.866855,73.2746814 L131.684174,68.1499725 L131.684174,79.4320748 L120.866855,84.5649054 L120.866909,73.7265231 L87.1254844,89.759597 L87.1254303,100.594054 L120.866855,84.5649054 L120.866855,95.7668728 L87.1254303,111.799947 L87.1254303,100.743494 L76.1415328,105.996663 L76.1415328,116.74178 L42.2347187,132.978846 L42.2347187,121.756168 L76.1415328,105.519102 L76.1415328,94.5352046 L87.1254303,89.5208166 L87.1254844,78.5535687 L120.866909,62.5244204 L120.866909,51.2343317 L131.684363,46.1096229 L131.684363,35.2876195 L165.425788,19.2584712 Z M-2.65599292,141.93311 L-13.6398904,147.186279 L-13.6398904,135.72482 L-2.65599292,130.710432 L-2.65599292,119.726535 L31.2508212,103.489469 L31.2508212,92.5055713 L42.2347187,87.4911833 L42.2347187,77.1042368 L76.1415328,60.8671709 L76.1415328,49.8832733 L87.1254303,44.8688853 L87.1254303,56.0615127 L120.866855,40.0323644 L120.866855,51.2343317 L87.1254303,67.2674055 L87.1254303,78.4175289 L76.1415328,83.6706972 L76.1415328,94.5352046 L42.2347187,110.77227 L42.2347187,121.039827 L31.2508212,126.292995 L31.2508212,114.831537 L42.2347187,109.817149 L42.2347187,99.5495926 L76.1415328,83.3125267 L76.1415328,72.209239 L87.1254303,67.194851 L87.1254303,56.0915632 L76.1415328,61.3447316 L76.1415328,72.0898488 L42.2347187,88.3269147 L42.2347187,98.7138612 L31.2508212,103.96703 L31.2508212,114.712147 L-2.65599292,130.949213 L-2.65599292,141.93311 Z M42.2347187,42.8392521 L42.2347187,54.06193 L31.2508212,59.3150984 L31.2508212,70.0602155 L-2.65599292,86.2972814 L-2.65599292,97.281179 L-13.6398904,102.534347 L-13.6398904,113.398855 L-47.5467045,129.635921 L-47.5467045,118.413243 L-13.6398904,102.176177 L-13.6398904,91.0728891 L-2.65599292,86.0585011 L-2.65599292,75.0746035 L31.2508212,58.8375376 L31.2508212,47.8536401 L42.2347187,42.8392521 Z M87.1254303,111.846782 L87.1254303,123.06946 L76.1415328,128.322628 L76.1415328,116.86117 L87.1254303,111.846782 Z M165.425977,86.2832037 L165.425842,97.485171 L131.684417,113.518245 L131.684417,102.312217 L165.425977,86.2832037 Z M-2.65599292,63.7325354 L-2.65599292,74.9552133 L-13.6398904,80.2083817 L-13.6398904,90.9534989 L-47.5467045,107.190565 L-47.5467045,95.9678869 L-13.6398904,79.730821 L-13.6398904,68.7469234 L-2.65599292,63.7325354 Z M165.425788,63.7910123 L165.425788,74.9929796 L131.684363,91.0260534 L131.684363,101.924266 L120.867044,107.057097 L120.866909,95.7668728 L131.684363,90.6421639 L131.684363,79.8201606 L165.425788,63.7910123 Z M176.243295,69.8682708 L176.243295,81.150373 L165.425977,86.2832037 L165.425842,74.9929796 L176.243295,69.8682708 Z M176.243295,25.3357297 L176.243295,36.617832 L165.425977,41.7506626 L165.425788,52.5007882 L176.243106,47.3760793 L176.243106,58.6581816 L165.425788,63.7910123 L165.425842,52.95263 L131.684417,68.9857038 L131.684417,57.7796756 L165.425842,41.7505273 L165.425842,30.4604386 L176.243295,25.3357297 Z M131.684174,23.6174314 L131.684174,34.8995337 L120.866855,40.0323644 L120.866855,28.7421403 L131.684174,23.6174314 Z M176.243106,2.84353829 L176.243106,14.1256406 L165.425788,19.2584712 L165.425788,7.96824716 L176.243106,2.84353829 Z" id="Combined-Shape" fill="url(#linearGradient-4)" mask="url(#mask-3)"></path>
                    </g>
                    <g id="Logo-tarjeta-/-visa" transform="translate(224.000000, 95.000000)" filter="url(#filter-5)">
                        <g>
                            <path d="M25.6385826,14.3383096 C26.5557946,14.3323278 27.4667649,14.4889444 28.3289429,14.800844 L28.3289429,14.800844 L27.8905775,17.1734739 L27.6155247,17.0535576 C26.9056181,16.7581514 26.1412097,16.6151418 25.3721251,16.6338505 C24.1945553,16.6338505 23.6530451,17.079254 23.6530451,17.5760501 C23.6530451,18.0728463 24.3234864,18.4240298 25.3721251,18.9293914 C27.1083961,19.7174129 27.8905775,20.668178 27.8905775,21.9101684 C27.8647913,24.1885784 25.819086,25.6618555 22.6645741,25.6618555 C21.5272252,25.6641153 20.3983439,25.4669595 19.3295588,25.0793853 L19.3295588,25.0793853 L19.7507334,22.6211009 L20.128931,22.7924099 C21.01411,23.1997592 21.9822743,23.3962364 22.9568177,23.3662951 C23.8163577,23.3662951 24.7532563,23.0322425 24.7532563,22.2956137 C24.7618517,21.7988175 24.3406771,21.4733304 23.1974889,20.9422724 C22.0543007,20.4112145 20.5672964,19.5375384 20.5672964,17.9614954 C20.5844873,15.8286981 22.6731694,14.3383096 25.6385826,14.3383096 Z M19.9054506,14.3381445 L18.0316534,25.3104874 L15.0318586,25.3104874 L16.9056559,14.3381445 L19.9054506,14.3381445 Z M33.8167138,14.33927 L33.9503347,14.3505162 L36.2710928,14.3505162 L38.7207818,25.3057283 L35.9358721,25.3057283 C35.9358721,25.3057283 35.6608193,24.046607 35.5662699,23.6697271 L35.5662699,23.6697271 L31.724126,23.6697271 L31.079471,25.2885974 L27.924959,25.2885974 L32.3859718,15.2670195 C32.635811,14.6410233 33.279933,14.2636557 33.9503347,14.3505162 Z M15.3412931,14.3381445 L10.5794413,25.2762256 L7.40773858,25.2762256 L4.77232006,15.8905924 C3.76177763,15.3298832 2.59493984,14.8817383 1.27921818,14.5776833 L1.27921818,14.5776833 L1.27921818,14.3464162 L6.36522492,14.3464162 C7.01780379,14.2749723 7.62593565,14.6730644 7.79145962,15.2800503 L7.79145962,15.2800503 L8.88580322,20.3165356 C8.87965156,20.3014585 8.8734501,20.2863959 8.86719887,20.2713481 L8.87755203,20.2996985 L9.18698644,21.8500452 L12.1266134,14.3381445 L15.3412931,14.3381445 Z M34.1738151,17.3141623 C34.0190978,17.725304 33.7784267,18.3591474 33.7784267,18.3591474 L33.7784267,18.3591474 L32.583666,21.4255789 L35.0677367,21.4255789 L34.3801047,18.256362 Z" id="Combined-Shape" fill="#1A1F71"></path>
                        </g>
                    </g>
                </g>
                <g id="logo-smart" transform="translate(220.561785, 12.000992)" filter="url(#filter-6)">
                    <g>
                        <path d="M3.30882646,9.99989669 C3.88670994,9.99989669 4.40387377,9.92242681 4.86031797,9.76748703 C5.31676216,9.61254726 5.70201781,9.39479407 6.01608492,9.11422745 C6.33015203,8.83366083 6.56884303,8.49656214 6.73215793,8.10293137 C6.89547282,7.70930059 6.97713027,7.26960664 6.97713027,6.78384952 C6.97713027,6.06358895 6.79078379,5.47942413 6.41809082,5.03135506 C6.04539785,4.58328598 5.45704547,4.22524948 4.65303368,3.95724555 C4.45203073,3.89024457 4.248934,3.82743115 4.04374349,3.76880529 C3.83855298,3.71017943 3.65430028,3.64108466 3.49098538,3.561521 C3.32767048,3.48195733 3.1957623,3.3877372 3.09526083,3.2788606 C2.99475935,3.169984 2.94450861,3.03179447 2.94450861,2.86429202 C2.94450861,2.62141345 3.04501009,2.42459807 3.24601304,2.27384586 C3.44701599,2.12309364 3.70664479,2.04771754 4.02489946,2.04771754 C4.27615315,2.04771754 5.36452791,2.15803361 6.24993543,2.41844759 L6.97909457,0.491384161 C5.88535587,0.022639004 4.11702581,-4.73690264e-14 3.64801893,-4.73690264e-14 C3.14551156,-4.73690264e-14 2.69116115,0.0753761057 2.28496769,0.226128317 C1.87877423,0.376880529 1.53539419,0.588352381 1.25482758,0.860543874 C0.974260961,1.13273537 0.756507767,1.45936516 0.601567994,1.84043325 C0.446628221,2.22150134 0.369158335,2.64653882 0.369158335,3.1155457 C0.369158335,3.58455258 0.44244066,3.97190202 0.58900531,4.277594 C0.73556996,4.58328598 0.928197786,4.83663345 1.16688879,5.0376364 C1.40557979,5.23863935 1.67777128,5.39986046 1.98346327,5.52129974 C2.28915525,5.64273903 2.60112858,5.7537094 2.91938325,5.85421088 C3.18738718,5.94633723 3.41560927,6.03008846 3.60404954,6.10546456 C3.7924898,6.18084067 3.9453358,6.26249812 4.06258752,6.35043691 C4.17983924,6.4383757 4.26359046,6.53468961 4.3138412,6.63937865 C4.36409194,6.74406768 4.38921731,6.86760074 4.38921731,7.00997783 C4.38921731,7.24448127 4.29080961,7.45385934 4.09399423,7.63811205 C3.89717884,7.82236475 3.73530204,7.88975832 3.1957623,7.9144911 C2.65622256,7.93922389 1.24998709,7.7308927 0.833324724,7.47047873 L0,9.39754215 C1.24998709,10.0225357 2.11118389,9.99989669 3.30882646,9.99989669 Z M21.2909655,9.84029757 L21.8562863,8.19458593 L25.3738379,8.19458593 L25.9391587,9.84029757 L28.5647597,9.84029757 L24.9592693,0.368033614 L22.2708549,0.368033614 L18.6653645,9.84029757 L21.2909655,9.84029757 Z M24.7205783,6.32274597 L22.5095459,6.32274597 L23.6150621,3.16951221 L24.7205783,6.32274597 Z M31.6629968,9.84029757 L31.6629968,6.19711912 L34.0122188,9.84029757 L37.0775138,9.84029757 L34.1001576,5.95842812 C34.7785425,5.79930079 35.2915188,5.49570258 35.6390864,5.04763351 C35.986654,4.59956444 36.1604378,4.01539962 36.1604378,3.29513905 C36.1604378,2.89313316 36.0955306,2.51625263 35.9657162,2.16449747 C35.8359018,1.81274231 35.643274,1.50286276 35.3878327,1.23485883 C35.1323915,0.966854899 34.8078555,0.755383046 34.4142247,0.600443273 C34.0205939,0.445503501 33.5599622,0.368033614 33.0323294,0.368033614 L33.0323294,0.368033614 L29.2007107,0.368033614 L29.2007107,9.84029757 L31.6629968,9.84029757 Z M32.1278161,4.60165822 L31.6629968,4.60165822 L31.6629968,2.26499894 L32.1278161,2.26499894 C32.6135733,2.26499894 32.9862662,2.36550042 33.245895,2.56650336 C33.5055239,2.76750631 33.6353383,3.05644805 33.6353383,3.43332858 C33.6353383,3.81020911 33.5055239,4.09915085 33.245895,4.3001538 C32.9862662,4.50115674 32.6135733,4.60165822 32.1278161,4.60165822 L32.1278161,4.60165822 Z M41.2184537,9.84029757 L41.2184537,2.45343921 L43.2410458,2.45343921 L43.9077056,0.368033614 L36.0669156,0.368033614 L36.7335754,2.45343921 L38.7561675,2.45343921 L38.7561675,9.84029757 L41.2184537,9.84029757 Z" id="SMART" fill="#222222" fill-rule="nonzero"></path>
                        <polygon id="M" fill="#222222" fill-rule="nonzero" points="9.86292398 9.79300604 9.86292398 4.11480111 12.1358985 9.79300604 13.6677742 9.79300604 15.9407487 4.06151847 15.9407487 9.79300604 18.1967981 9.79300604 18.1967981 0.348659163 15.2480744 0.348659163 12.9218173 6.05773668 10.5289569 0.348659163 7.66015721 0.348659163 7.66015721 9.79300604"></polygon>
                    </g>
                </g>
            </g>
        </g>
    </g>
</svg>